<?xml version="1.0" encoding="UTF-8"?>
<svg version="1.1" xmlns="http://www.w3.org/2000/svg" width="1195" height="1268">
<path d="M0 0 C0.72509766 -0.00386719 1.45019531 -0.00773438 2.19726562 -0.01171875 C9.12602787 0.00073186 15.60399025 0.19290095 21.5625 4.125 C22.85546875 6.59375 22.85546875 6.59375 23.75 9.625 C25.86614688 15.77419305 28.67659208 21.10331176 32 26.6875 C43.5625 46.17309864 43.5625 46.17309864 43.5625 50.125 C44.2225 50.125 44.8825 50.125 45.5625 50.125 C46.85923602 52.66419006 48.14997837 55.20614238 49.4375 57.75 C49.98470703 58.81927734 49.98470703 58.81927734 50.54296875 59.91015625 C52.56250927 63.91251837 54.2706111 67.81417073 55.5625 72.125 C56.2225 72.125 56.8825 72.125 57.5625 72.125 C59.02933251 74.8081566 60.48603026 77.49604767 61.9375 80.1875 C62.35 80.93966797 62.7625 81.69183594 63.1875 82.46679688 C65.60343704 86.96745377 67.36164464 91.15662592 68.5625 96.125 C69.2225 96.125 69.8825 96.125 70.5625 96.125 C72.05238243 98.84844582 73.52743737 101.57965614 75 104.3125 C75.42087891 105.08142578 75.84175781 105.85035156 76.27539062 106.64257812 C78.31262425 110.43998161 80.08259495 113.77095236 80.5625 118.125 C81.2225 118.125 81.8825 118.125 82.5625 118.125 C84.40585203 121.55721809 86.23542909 124.99659127 88.0625 128.4375 C88.58714844 129.41396484 89.11179687 130.39042969 89.65234375 131.39648438 C90.14863281 132.33427734 90.64492187 133.27207031 91.15625 134.23828125 C91.61708984 135.10235596 92.07792969 135.96643066 92.55273438 136.85668945 C93.5625 139.125 93.5625 139.125 93.5625 142.125 C94.5525 142.455 95.5425 142.785 96.5625 143.125 C97.72924805 144.85913086 97.72924805 144.85913086 98.82421875 147.08984375 C99.41879883 148.28963867 99.41879883 148.28963867 100.02539062 149.51367188 C100.42951172 150.35478516 100.83363281 151.19589844 101.25 152.0625 C101.66572266 152.89974609 102.08144531 153.73699219 102.50976562 154.59960938 C105.5625 160.83039563 105.5625 160.83039563 105.5625 163.125 C106.2225 163.125 106.8825 163.125 107.5625 163.125 C108.03558594 164.094375 108.50867188 165.06375 108.99609375 166.0625 C112.54497987 173.27656958 116.20232319 180.39117715 120.1875 187.375 C130.5625 205.57464607 130.5625 205.57464607 130.5625 209.125 C131.2225 209.125 131.8825 209.125 132.5625 209.125 C134.05238243 211.84844582 135.52743737 214.57965614 137 217.3125 C137.42087891 218.08142578 137.84175781 218.85035156 138.27539062 219.64257812 C140.31262425 223.43998161 142.08259495 226.77095236 142.5625 231.125 C143.2225 231.125 143.8825 231.125 144.5625 231.125 C146.40585203 234.55721809 148.23542909 237.99659127 150.0625 241.4375 C150.58714844 242.41396484 151.11179688 243.39042969 151.65234375 244.39648438 C152.14863281 245.33427734 152.64492187 246.27207031 153.15625 247.23828125 C153.84750977 248.53439331 153.84750977 248.53439331 154.55273438 249.85668945 C155.5625 252.125 155.5625 252.125 155.5625 255.125 C156.2225 255.125 156.8825 255.125 157.5625 255.125 C157.86430176 255.70878418 158.16610352 256.29256836 158.47705078 256.89404297 C159.87721856 259.59776001 161.28233387 262.29887754 162.6875 265 C163.161875 265.9178125 163.63625 266.835625 164.125 267.78125 C166.9828579 273.26524758 170.00439602 278.59734487 173.21923828 283.87939453 C174.93021172 286.73972418 176.45319512 289.64068332 177.9375 292.625 C178.44023437 293.6253125 178.94296875 294.625625 179.4609375 295.65625 C180.5625 298.125 180.5625 298.125 180.5625 300.125 C181.2225 300.125 181.8825 300.125 182.5625 300.125 C183.85923602 302.66419006 185.14997837 305.20614238 186.4375 307.75 C186.80230469 308.46285156 187.16710937 309.17570312 187.54296875 309.91015625 C189.56250927 313.91251837 191.2706111 317.81417073 192.5625 322.125 C193.2225 322.125 193.8825 322.125 194.5625 322.125 C196.02933251 324.8081566 197.48603026 327.49604767 198.9375 330.1875 C199.35 330.93966797 199.7625 331.69183594 200.1875 332.46679688 C202.60343704 336.96745377 204.36164464 341.15662592 205.5625 346.125 C206.2225 346.125 206.8825 346.125 207.5625 346.125 C209.23923137 349.22383145 210.9021134 352.32988455 212.5625 355.4375 C213.03945312 356.31857422 213.51640625 357.19964844 214.0078125 358.10742188 C214.45898438 358.95498047 214.91015625 359.80253906 215.375 360.67578125 C216.00341797 361.84620972 216.00341797 361.84620972 216.64453125 363.0402832 C217.5625 365.125 217.5625 365.125 217.5625 368.125 C218.2225 368.125 218.8825 368.125 219.5625 368.125 C219.89983154 368.77984375 220.23716309 369.4346875 220.5847168 370.109375 C222.136285 373.1164177 223.69310094 376.12071413 225.25 379.125 C226.04567383 380.66994141 226.04567383 380.66994141 226.85742188 382.24609375 C229.54407986 387.42161895 232.31183551 392.45704047 235.46166992 397.36425781 C237.10485601 399.99248093 238.49531064 402.72636093 239.875 405.5 C240.38675781 406.51835937 240.89851563 407.53671875 241.42578125 408.5859375 C242.5625 411.125 242.5625 411.125 242.5625 413.125 C243.2225 413.125 243.8825 413.125 244.5625 413.125 C244.86953857 413.74955078 245.17657715 414.37410156 245.49291992 415.01757812 C246.90758808 417.88888956 248.32874343 420.75694438 249.75 423.625 C250.23275391 424.60726563 250.71550781 425.58953125 251.21289062 426.6015625 C253.72805398 431.66564979 256.35023598 436.53192345 259.4128418 441.28417969 C261.26858656 444.25557819 262.82591375 447.3607921 264.375 450.5 C264.68630859 451.11488281 264.99761719 451.72976563 265.31835938 452.36328125 C267.5625 456.87129121 267.5625 456.87129121 267.5625 459.125 C268.2225 459.125 268.8825 459.125 269.5625 459.125 C271.23923137 462.22383145 272.9021134 465.32988455 274.5625 468.4375 C275.03945313 469.31857422 275.51640625 470.19964844 276.0078125 471.10742188 C276.45898438 471.95498047 276.91015625 472.80253906 277.375 473.67578125 C278.00341797 474.84620972 278.00341797 474.84620972 278.64453125 476.0402832 C279.5625 478.125 279.5625 478.125 279.5625 481.125 C280.2225 481.125 280.8825 481.125 281.5625 481.125 C283.40585203 484.55721809 285.23542909 487.99659127 287.0625 491.4375 C287.58714844 492.41396484 288.11179687 493.39042969 288.65234375 494.39648438 C289.14863281 495.33427734 289.64492188 496.27207031 290.15625 497.23828125 C290.61708984 498.10235596 291.07792969 498.96643066 291.55273438 499.85668945 C292.5625 502.125 292.5625 502.125 292.5625 505.125 C293.2225 505.125 293.8825 505.125 294.5625 505.125 C300.51420219 515.96967331 306.4476256 526.82452732 312.25 537.75 C312.6713623 538.53608643 313.09272461 539.32217285 313.52685547 540.13208008 C313.91373535 540.86450928 314.30061523 541.59693848 314.69921875 542.3515625 C315.20521606 543.30409912 315.20521606 543.30409912 315.72143555 544.27587891 C316.59846662 546.20407437 317.11328411 548.05877846 317.5625 550.125 C318.2225 550.125 318.8825 550.125 319.5625 550.125 C320.86285771 552.47471614 322.15279469 554.82924337 323.4375 557.1875 C323.80230469 557.84427734 324.16710937 558.50105469 324.54296875 559.17773438 C326.84796469 563.4314996 328.4014164 567.42566691 329.5625 572.125 C330.2225 572.125 330.8825 572.125 331.5625 572.125 C331.98547363 572.93336304 331.98547363 572.93336304 332.41699219 573.75805664 C333.71414958 576.23524481 335.01331084 578.71137685 336.3125 581.1875 C336.7559375 582.03505859 337.199375 582.88261719 337.65625 583.75585938 C339.58691446 587.43263949 341.52227682 591.09949088 343.59375 594.69921875 C345.90510365 598.72115753 348.1219126 602.78637922 350.3125 606.875 C350.72371094 607.62910156 351.13492187 608.38320313 351.55859375 609.16015625 C351.94660156 609.88589844 352.33460938 610.61164062 352.734375 611.359375 C353.0859668 612.01131836 353.43755859 612.66326172 353.79980469 613.33496094 C354.5625 615.125 354.5625 615.125 354.5625 618.125 C355.2225 618.125 355.8825 618.125 356.5625 618.125 C362.87527913 629.72722668 369.1809607 641.33383474 375.375 653 C375.80087402 653.79510986 376.22674805 654.59021973 376.66552734 655.40942383 C379.5625 660.89232959 379.5625 660.89232959 379.5625 663.125 C380.2225 663.125 380.8825 663.125 381.5625 663.125 C382.86285771 665.47471614 384.15279469 667.82924337 385.4375 670.1875 C385.80230469 670.84427734 386.16710937 671.50105469 386.54296875 672.17773438 C388.84796469 676.4314996 390.4014164 680.42566691 391.5625 685.125 C392.2225 685.125 392.8825 685.125 393.5625 685.125 C395.21892764 688.18188229 396.86071792 691.24639395 398.5 694.3125 C398.96857422 695.17681641 399.43714844 696.04113281 399.91992188 696.93164062 C400.36787109 697.77275391 400.81582031 698.61386719 401.27734375 699.48046875 C401.69105225 700.25028076 402.10476074 701.02009277 402.53100586 701.81323242 C403.61684833 704.24680458 404.1384133 706.50134398 404.5625 709.125 C405.2225 709.125 405.8825 709.125 406.5625 709.125 C408.23923137 712.22383145 409.9021134 715.32988455 411.5625 718.4375 C412.03945313 719.31857422 412.51640625 720.19964844 413.0078125 721.10742188 C413.68457031 722.37875977 413.68457031 722.37875977 414.375 723.67578125 C414.79394531 724.45606689 415.21289062 725.23635254 415.64453125 726.0402832 C416.5625 728.125 416.5625 728.125 416.5625 731.125 C417.2225 731.125 417.8825 731.125 418.5625 731.125 C418.89459473 731.76937012 419.22668945 732.41374023 419.56884766 733.07763672 C421.10501097 736.05352021 422.64622527 739.02676081 424.1875 742 C424.70957031 743.01320313 425.23164063 744.02640625 425.76953125 745.0703125 C428.75850604 750.82685654 431.89099326 756.43953807 435.26806641 761.97705078 C436.77265269 764.47372187 438.14077738 767.01460414 439.4375 769.625 C439.84742188 770.4396875 440.25734375 771.254375 440.6796875 772.09375 C441.5625 774.125 441.5625 774.125 441.5625 776.125 C442.2225 776.125 442.8825 776.125 443.5625 776.125 C452.1934795 791.68536446 452.1934795 791.68536446 454.5625 800.125 C455.2225 800.125 455.8825 800.125 456.5625 800.125 C458.05238243 802.84844582 459.52743737 805.57965614 461 808.3125 C461.42087891 809.08142578 461.84175781 809.85035156 462.27539062 810.64257812 C464.31262425 814.43998161 466.08259495 817.77095236 466.5625 822.125 C467.2225 822.125 467.8825 822.125 468.5625 822.125 C470.23923137 825.22383145 471.9021134 828.32988455 473.5625 831.4375 C474.03945313 832.31857422 474.51640625 833.19964844 475.0078125 834.10742188 C475.68457031 835.37875977 475.68457031 835.37875977 476.375 836.67578125 C476.79394531 837.45606689 477.21289062 838.23635254 477.64453125 839.0402832 C478.5625 841.125 478.5625 841.125 478.5625 844.125 C479.2225 844.125 479.8825 844.125 480.5625 844.125 C482.8725 848.745 485.1825 853.365 487.5625 858.125 C492.20474094 851.83863206 496.06185111 845.5034878 499.64819336 838.59008789 C501.87019592 834.33604811 504.31043461 830.38409099 507.05859375 826.4453125 C509.61287176 822.50442643 511.70460447 818.31358568 513.8515625 814.140625 C515.5625 811.125 515.5625 811.125 517.5859375 808.60546875 C519.7236963 805.9227082 521.09616865 803.28353114 522.5625 800.1875 C524.64005541 795.91783725 526.86600794 792.03926266 529.5625 788.125 C530.3673691 786.71579232 531.15778904 785.2982819 531.9375 783.875 C535.27870347 777.78161981 538.8613726 771.8441249 542.546875 765.953125 C546.5823761 759.49025482 550.32306918 753.02436469 553.5625 746.125 C554.2225 746.125 554.8825 746.125 555.5625 746.125 C555.80742188 745.28710938 556.05234375 744.44921875 556.3046875 743.5859375 C557.723961 739.68073153 559.58107766 736.31528729 561.6875 732.75 C562.06003906 732.10933594 562.43257812 731.46867188 562.81640625 730.80859375 C563.72684002 729.24451523 564.64398191 727.68434466 565.5625 726.125 C566.2225 726.125 566.8825 726.125 567.5625 726.125 C567.80613281 725.29355469 568.04976562 724.46210937 568.30078125 723.60546875 C569.74952364 719.6090927 571.63665926 716.11285597 573.75 712.4375 C574.14928711 711.73488037 574.54857422 711.03226074 574.95996094 710.30834961 C577.82616215 705.30393484 580.8581349 700.42627961 584 695.58984375 C585.94158688 692.52699044 587.69947266 689.3853957 589.421875 686.1953125 C590.74173349 683.79967894 592.14529017 681.46429319 593.5625 679.125 C599.23869193 669.71933243 599.23869193 669.71933243 604.63671875 660.15234375 C608.36707966 653.32367644 612.4677449 646.7396044 616.5625 640.125 C620.78618207 633.24009582 624.74595449 626.24380474 628.5625 619.125 C629.2225 619.125 629.8825 619.125 630.5625 619.125 C630.67658203 618.11759766 630.67658203 618.11759766 630.79296875 617.08984375 C631.81552993 613.15012836 633.73536908 610.1211797 635.875 606.6875 C636.26623047 606.04490234 636.65746094 605.40230469 637.06054688 604.74023438 C638.88036458 601.76756366 640.74853348 598.84782718 642.69140625 595.953125 C644.34555025 593.4529157 645.79198537 590.96226551 647.1875 588.3125 C649.88166674 583.30121275 652.72760126 578.39523636 655.625 573.5 C659.02568684 567.75375014 662.36471602 561.98760396 665.5625 556.125 C666.2225 556.125 666.8825 556.125 667.5625 556.125 C667.68488037 555.54975586 667.80726074 554.97451172 667.93334961 554.38183594 C668.58652143 552.03883232 669.47810946 550.15513453 670.62890625 548.015625 C671.03173828 547.26152344 671.43457031 546.50742187 671.84960938 545.73046875 C672.27048828 544.95316406 672.69136719 544.17585937 673.125 543.375 C673.54974609 542.58222656 673.97449219 541.78945313 674.41210938 540.97265625 C675.45832417 539.02128933 676.50855953 537.07220186 677.5625 535.125 C678.2225 535.125 678.8825 535.125 679.5625 535.125 C679.79710937 534.48175781 680.03171875 533.83851563 680.2734375 533.17578125 C682.00157684 529.08585148 684.08974917 525.22283866 686.1875 521.3125 C686.60773437 520.52423828 687.02796875 519.73597656 687.4609375 518.92382812 C688.4925009 516.98964674 689.52641172 515.05676017 690.5625 513.125 C691.2225 513.125 691.8825 513.125 692.5625 513.125 C692.80742188 512.46113281 693.05234375 511.79726563 693.3046875 511.11328125 C694.87559331 507.3811603 696.76039136 503.87050093 698.6875 500.3125 C699.06003906 499.61962891 699.43257812 498.92675781 699.81640625 498.21289062 C700.72940377 496.51565164 701.64562716 494.82014862 702.5625 493.125 C703.2225 493.125 703.8825 493.125 704.5625 493.125 C704.73930298 492.26890137 704.73930298 492.26890137 704.91967773 491.39550781 C705.61429061 488.94207076 706.59552517 487.01584147 707.84765625 484.796875 C708.29560547 483.99765625 708.74355469 483.1984375 709.20507812 482.375 C709.67365234 481.55 710.14222656 480.725 710.625 479.875 C711.33366211 478.61429687 711.33366211 478.61429687 712.05664062 477.328125 C713.22107961 475.25801124 714.3898145 473.19044986 715.5625 471.125 C716.2225 471.125 716.8825 471.125 717.5625 471.125 C717.80742188 470.29742187 718.05234375 469.46984375 718.3046875 468.6171875 C719.75443489 464.59211244 721.6348051 460.99272286 723.6875 457.25 C724.06003906 456.56164062 724.43257812 455.87328125 724.81640625 455.1640625 C725.72749526 453.48205202 726.64440315 451.80319564 727.5625 450.125 C728.2225 450.125 728.8825 450.125 729.5625 450.125 C729.81515625 449.44953125 730.0678125 448.7740625 730.328125 448.078125 C731.7952956 444.56805864 733.52016577 441.22627179 735.3125 437.875 C735.66884521 437.20678223 736.02519043 436.53856445 736.39233398 435.85009766 C738.71884344 431.54368011 741.24384682 427.48231627 744.04296875 423.46484375 C747.22812519 418.56019412 749.85658869 413.30465863 752.5625 408.125 C753.2225 408.125 753.8825 408.125 754.5625 408.125 C754.80355469 407.29742187 755.04460938 406.46984375 755.29296875 405.6171875 C756.77175831 401.54937868 758.71859441 397.98989162 760.875 394.25 C761.48384033 393.18120605 761.48384033 393.18120605 762.10498047 392.09082031 C764.42961502 388.02992488 766.81582634 384.02115606 769.3359375 380.078125 C773.42360293 373.56910362 777.1678962 366.84607001 780.90795898 360.13330078 C784.41133546 353.84959613 788.0187919 347.69258327 791.93359375 341.65234375 C795.80105791 335.65174588 799.50461635 329.58053216 802.5625 323.125 C803.2225 323.125 803.8825 323.125 804.5625 323.125 C804.81644531 322.27292969 805.07039062 321.42085938 805.33203125 320.54296875 C806.64491708 316.89606368 808.3051187 313.78850373 810.25 310.4375 C810.60231689 309.8280957 810.95463379 309.21869141 811.31762695 308.59082031 C814.06230208 303.88073866 816.99596757 299.30603855 819.96484375 294.734375 C822.04160145 291.34250667 823.75785137 287.8280407 825.421875 284.21875 C826.5625 282.125 826.5625 282.125 828.01049805 280.72460938 C829.64754484 279.03734642 830.51700187 277.54708807 831.53515625 275.4375 C831.87740234 274.73882812 832.21964844 274.04015625 832.57226562 273.3203125 C832.91966797 272.59585937 833.26707031 271.87140625 833.625 271.125 C834.32242973 269.68663117 835.02158588 268.24909787 835.72265625 266.8125 C836.02824463 266.17699219 836.33383301 265.54148437 836.64868164 264.88671875 C837.5625 263.125 837.5625 263.125 839.5625 260.125 C840.2225 260.125 840.8825 260.125 841.5625 260.125 C841.80484375 259.29613281 842.0471875 258.46726562 842.296875 257.61328125 C843.76263895 253.57338245 845.67829234 250.03012353 847.8125 246.3125 C848.41529785 245.24974854 848.41529785 245.24974854 849.03027344 244.16552734 C851.58411507 239.70499449 854.30911885 235.42246837 857.234375 231.1953125 C859.20281497 228.12686196 860.70717755 224.8616717 862.2890625 221.58203125 C863.9336262 218.40893134 865.92290609 215.55653913 867.953125 212.62109375 C870.53641552 208.6144854 872.67202505 204.37690906 874.8515625 200.140625 C876.5625 197.125 876.5625 197.125 878.59765625 194.5859375 C880.66737654 191.9936437 881.97212221 189.49981361 883.375 186.5 C885.84452855 181.42477842 888.62960566 176.75064716 891.71484375 172.03125 C894.11696481 168.25286085 896.30832689 164.36576275 898.50463867 160.46630859 C900.82292047 156.36942711 903.25247314 152.36540946 905.75 148.375 C909.02906021 143.10392688 911.92488467 137.74261341 914.5625 132.125 C915.2225 132.125 915.8825 132.125 916.5625 132.125 C917.2225 130.145 917.8825 128.165 918.5625 126.125 C932.62135516 123.5215083 944.17008722 129.95662286 955.8671875 137.16015625 C960.4047945 140.46800599 962.71541838 144.08753574 964.22265625 149.4921875 C965.21536298 158.69220195 959.52737945 165.9453072 954.73583984 173.31518555 C953.28611672 175.55130654 951.92088962 177.83247425 950.5625 180.125 C950.0675 180.93839844 949.5725 181.75179687 949.0625 182.58984375 C946.37121746 187.02625481 943.78428798 191.43455872 941.5625 196.125 C940.9025 196.125 940.2425 196.125 939.5625 196.125 C939.30855469 196.97707031 939.05460938 197.82914063 938.79296875 198.70703125 C937.48008292 202.35393632 935.8198813 205.46149627 933.875 208.8125 C933.52268311 209.4219043 933.17036621 210.03130859 932.80737305 210.65917969 C930.06269792 215.36926134 927.12903243 219.94396145 924.16015625 224.515625 C922.08339855 227.90749333 920.36714863 231.4219593 918.703125 235.03125 C917.5625 237.125 917.5625 237.125 916.10546875 238.546875 C913.97605565 240.72480637 912.93651574 243.13368859 911.625 245.875 C909.42172766 250.40242246 907.12323955 254.79144076 904.5625 259.125 C903.9025 259.125 903.2425 259.125 902.5625 259.125 C902.28792969 259.83398438 902.01335938 260.54296875 901.73046875 261.2734375 C898.41241104 269.37438106 894.21359445 276.87343781 889.4296875 284.1875 C886.57135578 288.68428964 883.97762565 293.32139734 881.359375 297.9609375 C879.79896986 300.70860742 878.2004034 303.42312161 876.5625 306.125 C873.16633726 311.75810193 869.80270932 317.4006302 866.5625 323.125 C863.81010987 327.97528409 860.99899615 332.7833811 858.125 337.5625 C857.72885498 338.22282227 857.33270996 338.88314453 856.92456055 339.56347656 C854.94378025 342.85786972 852.94192595 346.13368431 850.875 349.375 C848.390079 353.30305382 846.22556314 357.39311619 844.0234375 361.484375 C842.81151861 363.67490219 841.54754603 365.77560009 840.1875 367.875 C837.28445451 372.38980126 834.85797 377.15905797 832.41650391 381.93457031 C830.75172616 385.13562244 829.16623903 387.64931371 826.5625 390.125 C825.59692094 391.7426224 824.68526418 393.39297078 823.8125 395.0625 C821.69969281 399.02855576 819.53007145 402.94008167 817.25 406.8125 C814.87427411 410.85228059 812.55154442 414.91586631 810.26977539 419.0090332 C805.55618878 427.46413598 800.62203742 435.74236461 795.42553711 443.91259766 C791.98816565 449.34751785 788.7919701 454.90407333 785.625 460.5 C781.69688147 467.43376277 777.67934504 474.3016755 773.5625 481.125 C769.1577825 488.55855795 764.88526563 496.06345183 760.6706543 503.60595703 C759.96106373 504.8741817 759.24873312 506.14087856 758.53320312 507.40576172 C757.65319641 508.96436517 756.78674134 510.53060081 755.921875 512.09765625 C755.47328125 512.76667969 755.0246875 513.43570313 754.5625 514.125 C753.9025 514.125 753.2425 514.125 752.5625 514.125 C752.18351563 515.40117188 752.18351563 515.40117188 751.796875 516.703125 C750.47106228 520.37847925 748.7813362 523.50203256 746.8125 526.875 C746.45615479 527.48843262 746.09980957 528.10186523 745.73266602 528.73388672 C743.21104573 533.06199871 740.6412617 537.36122727 738.05078125 541.6484375 C732.40083671 551.05018248 726.99336794 560.59578636 721.5625 570.125 C720.2297259 572.4586534 718.89615208 574.79184814 717.5625 577.125 C716.9025 577.125 716.2425 577.125 715.5625 577.125 C715.32144531 577.95257812 715.08039062 578.78015625 714.83203125 579.6328125 C713.35314111 583.70089799 711.40539364 587.25923417 709.25 591 C708.87166016 591.66902344 708.49332031 592.33804688 708.10351562 593.02734375 C705.80318311 597.06752166 703.39109914 601.02216012 700.9128418 604.95507812 C698.24628752 609.24007802 695.69230979 613.59259091 693.125 617.9375 C692.57779297 618.85853516 692.03058594 619.77957031 691.46679688 620.72851562 C687.68809926 627.11876283 684.07678961 633.58577233 680.5625 640.125 C679.9025 640.125 679.2425 640.125 678.5625 640.125 C678.32789063 640.94226563 678.09328125 641.75953125 677.8515625 642.6015625 C676.29516343 646.85571995 674.20080042 650.58873396 671.9375 654.5 C671.51726563 655.23605469 671.09703125 655.97210937 670.6640625 656.73046875 C669.63497236 658.5313765 668.59939244 660.32857318 667.5625 662.125 C666.9025 662.125 666.2425 662.125 665.5625 662.125 C665.28664063 662.8365625 665.01078125 663.548125 664.7265625 664.28125 C661.17344421 672.96135106 656.54154995 680.97622968 651.56640625 688.90625 C649.6723328 691.9485824 647.85492059 695.02194841 646.0625 698.125 C643.57643653 702.42583292 641.00260744 706.65917143 638.375 710.875 C635.49224302 715.52659427 632.8918495 720.17513231 630.5625 725.125 C629.9025 725.125 629.2425 725.125 628.5625 725.125 C628.32144531 725.95128906 628.08039062 726.77757812 627.83203125 727.62890625 C626.34898891 731.71297669 624.4030507 735.30088911 622.25 739.0625 C621.87166016 739.73990234 621.49332031 740.41730469 621.10351562 741.11523438 C619.21110309 744.45497427 617.24052076 747.63753133 614.96484375 750.73046875 C612.02006422 754.75345721 610.06680035 759.12914572 607.9921875 763.6484375 C606.5625 766.125 606.5625 766.125 603.5625 767.125 C603.4903125 767.78757812 603.418125 768.45015625 603.34375 769.1328125 C602.27747524 773.21664483 600.24912465 776.41608276 598.0625 780 C597.3962561 781.11242065 597.3962561 781.11242065 596.71655273 782.24731445 C595.33904976 784.54429272 593.9517776 786.83512799 592.5625 789.125 C591.30311847 791.20950982 590.04511329 793.2948292 588.7890625 795.38134766 C588.03549488 796.63149864 587.27916077 797.87998795 586.51953125 799.12646484 C584.34810484 802.71276191 582.38901213 806.35173514 580.5625 810.125 C579.9025 810.125 579.2425 810.125 578.5625 810.125 C578.31757812 810.96289062 578.07265625 811.80078125 577.8203125 812.6640625 C576.401039 816.56926847 574.54392234 819.93471271 572.4375 823.5 C572.06496094 824.14066406 571.69242188 824.78132812 571.30859375 825.44140625 C570.39815998 827.00548477 569.48101809 828.56565534 568.5625 830.125 C567.9025 830.125 567.2425 830.125 566.5625 830.125 C566.38267578 831.23101563 566.38267578 831.23101563 566.19921875 832.359375 C564.83947793 838.26548852 561.12861521 843.35535145 557.75 848.3125 C555.1001647 852.21173951 552.71062989 856.22071703 550.375 860.3125 C550.04201904 860.89475342 549.70903809 861.47700684 549.3659668 862.0769043 C547.31244315 865.70450362 545.39695145 869.38226469 543.5625 873.125 C542.9025 873.125 542.2425 873.125 541.5625 873.125 C541.30855469 873.97707031 541.05460938 874.82914063 540.79296875 875.70703125 C539.48008292 879.35393632 537.8198813 882.46149627 535.875 885.8125 C535.52268311 886.4219043 535.17036621 887.03130859 534.80737305 887.65917969 C532.06269792 892.36926134 529.12903243 896.94396145 526.16015625 901.515625 C524.08339855 904.90749333 522.36714863 908.4219593 520.703125 912.03125 C519.5625 914.125 519.5625 914.125 518.09912109 915.52050781 C516.43476146 917.25838063 515.72916939 918.6693489 514.8359375 920.890625 C510.67380955 930.75779561 507.29321004 937.78134934 497.015625 942.2265625 C491.87965107 944.0163716 487.91486556 944.48742032 482.5625 943.125 C481.85351562 942.96 481.14453125 942.795 480.4140625 942.625 C473.42712581 940.71730398 467.92785221 936.92743559 464.06323242 930.71484375 C462.7406988 928.07127401 461.53608406 925.40571177 460.375 922.6875 C457.80414806 916.86881896 455.21806827 911.33782819 451.74731445 905.9987793 C449.86582771 903.02321558 448.30654257 899.90431806 446.75 896.75 C446.43869141 896.13511719 446.12738281 895.52023437 445.80664062 894.88671875 C443.5625 890.37870879 443.5625 890.37870879 443.5625 888.125 C442.9025 888.125 442.2425 888.125 441.5625 888.125 C441.13167114 887.30092651 441.13167114 887.30092651 440.69213867 886.46020508 C439.37963603 883.95182556 438.06483934 881.4446554 436.75 878.9375 C436.29818359 878.07318359 435.84636719 877.20886719 435.38085938 876.31835938 C432.80232449 871.40061272 432.80232449 871.40061272 430.0390625 866.5859375 C427.76586014 862.7972669 425.78518069 858.8578725 423.75 854.9375 C419.80298526 847.36923586 419.80298526 847.36923586 415.5 840 C411.60917401 833.68966877 408.25575052 827.08969133 404.82275391 820.5234375 C403.48001477 817.9680192 402.12223482 815.42099499 400.76171875 812.875 C400.30120117 812.0099585 399.84068359 811.14491699 399.36621094 810.25366211 C398.46740759 808.56543445 397.56579035 806.87870138 396.66113281 805.19360352 C396.25604492 804.42975342 395.85095703 803.66590332 395.43359375 802.87890625 C395.07193115 802.20158447 394.71026855 801.5242627 394.33764648 800.82641602 C393.5625 799.125 393.5625 799.125 393.5625 797.125 C392.9025 797.125 392.2425 797.125 391.5625 797.125 C390.26214229 794.77528386 388.97220531 792.42075663 387.6875 790.0625 C387.32269531 789.40572266 386.95789063 788.74894531 386.58203125 788.07226562 C384.27703531 783.8185004 382.7235836 779.82433309 381.5625 775.125 C380.9025 775.125 380.2425 775.125 379.5625 775.125 C379.13167114 774.30092651 379.13167114 774.30092651 378.69213867 773.46020508 C377.37963603 770.95182556 376.06483934 768.4446554 374.75 765.9375 C374.29818359 765.07318359 373.84636719 764.20886719 373.38085938 763.31835938 C371.20899646 759.18072273 368.97528987 755.12746652 366.5625 751.125 C364.7990073 747.93474523 363.08466852 744.71934728 361.375 741.5 C360.91158203 740.64148438 360.44816406 739.78296875 359.97070312 738.8984375 C359.53306641 738.0734375 359.09542969 737.2484375 358.64453125 736.3984375 C358.24468018 735.64997559 357.8448291 734.90151367 357.43286133 734.13037109 C356.5625 732.125 356.5625 732.125 356.5625 729.125 C355.9025 729.125 355.2425 729.125 354.5625 729.125 C354.22516846 728.47015625 353.88783691 727.8153125 353.5402832 727.140625 C351.988715 724.1335823 350.43189906 721.12928587 348.875 718.125 C348.34455078 717.09503906 347.81410156 716.06507813 347.26757812 715.00390625 C344.58092014 709.82838105 341.81316449 704.79295953 338.66333008 699.88574219 C337.02014399 697.25751907 335.62968936 694.52363907 334.25 691.75 C333.73824219 690.73164062 333.22648437 689.71328125 332.69921875 688.6640625 C331.5625 686.125 331.5625 686.125 331.5625 684.125 C330.9025 684.125 330.2425 684.125 329.5625 684.125 C321.65048883 669.37639665 321.65048883 669.37639665 319.3125 664.625 C317.89341844 661.78683687 316.36885708 659.06622365 314.77734375 656.32421875 C313.04704099 653.19187002 311.42553694 650.00622418 309.8125 646.8125 C309.49434326 646.18907715 309.17618652 645.5656543 308.84838867 644.92333984 C306.5625 640.36153638 306.5625 640.36153638 306.5625 638.125 C305.5725 637.795 304.5825 637.465 303.5625 637.125 C302.05557968 634.5567856 300.72321858 632.05004818 299.4375 629.375 C299.07785156 628.65828125 298.71820313 627.9415625 298.34765625 627.203125 C296.54763395 623.53566384 295.09483366 620.22235604 294.5625 616.125 C293.9025 616.125 293.2425 616.125 292.5625 616.125 C292.22516846 615.47015625 291.88783691 614.8153125 291.5402832 614.140625 C289.988715 611.1335823 288.43189906 608.12928587 286.875 605.125 C286.34455078 604.09503906 285.81410156 603.06507813 285.26757812 602.00390625 C282.58867754 596.84332476 279.83168465 591.81964393 276.69067383 586.92675781 C274.88090777 584.03645841 273.32069385 581.0248272 271.75 578 C269.36496416 573.44805434 266.90801263 568.96232809 264.30004883 564.53417969 C260.94075315 558.82626692 258.32434843 553.51170055 256.5625 547.125 C255.9025 547.125 255.2425 547.125 254.5625 547.125 C253.26214229 544.77528386 251.97220531 542.42075663 250.6875 540.0625 C250.32269531 539.40572266 249.95789063 538.74894531 249.58203125 538.07226562 C247.27703531 533.8185004 245.7235836 529.82433309 244.5625 525.125 C243.9025 525.125 243.2425 525.125 242.5625 525.125 C242.13167114 524.30092651 242.13167114 524.30092651 241.69213867 523.46020508 C240.37963603 520.95182556 239.06483934 518.4446554 237.75 515.9375 C237.29818359 515.07318359 236.84636719 514.20886719 236.38085938 513.31835938 C234.20889623 509.18053179 231.96886377 505.13133968 229.5625 501.125 C227.97143305 498.16073316 226.42582749 495.17296921 224.875 492.1875 C221.77315333 486.24727299 218.61284414 480.35918526 215.25 474.5625 C206.5625 459.53118661 206.5625 459.53118661 206.5625 456.125 C205.9025 456.125 205.2425 456.125 204.5625 456.125 C202.88936677 452.83658124 201.22510393 449.54375318 199.5625 446.25 C198.84707031 444.84427734 198.84707031 444.84427734 198.1171875 443.41015625 C197.66601562 442.51425781 197.21484375 441.61835938 196.75 440.6953125 C196.33105469 439.86789551 195.91210938 439.04047852 195.48046875 438.18798828 C194.5625 436.125 194.5625 436.125 194.5625 434.125 C193.9025 434.125 193.2425 434.125 192.5625 434.125 C191.26214229 431.77528386 189.97220531 429.42075663 188.6875 427.0625 C188.32269531 426.40572266 187.95789063 425.74894531 187.58203125 425.07226562 C185.27703531 420.8185004 183.7235836 416.82433309 182.5625 412.125 C181.9025 412.125 181.2425 412.125 180.5625 412.125 C178.90607236 409.06811771 177.26428208 406.00360605 175.625 402.9375 C175.15642578 402.07318359 174.68785156 401.20886719 174.20507812 400.31835938 C173.75712891 399.47724609 173.30917969 398.63613281 172.84765625 397.76953125 C172.43394775 396.99971924 172.02023926 396.22990723 171.59399414 395.43676758 C170.50815167 393.00319542 169.9865867 390.74865602 169.5625 388.125 C168.5725 387.795 167.5825 387.465 166.5625 387.125 C165.23167684 384.78552129 164.06759916 382.49684288 162.9375 380.0625 C160.13677371 374.24136976 157.20258862 368.548014 154 362.9375 C153.23687369 361.59641418 152.4738513 360.25526922 151.7109375 358.9140625 C151.34581055 358.27243164 150.98068359 357.63080078 150.60449219 356.96972656 C148.19085255 352.69665695 145.8801337 348.36811493 143.578125 344.03417969 C142.81729915 342.6039734 142.05384173 341.1751665 141.2890625 339.74707031 C139.89667826 337.14618308 138.51027993 334.54217704 137.125 331.9375 C136.45029663 330.67909302 136.45029663 330.67909302 135.76196289 329.39526367 C135.3468042 328.61127197 134.93164551 327.82728027 134.50390625 327.01953125 C134.12951416 326.31675049 133.75512207 325.61396973 133.36938477 324.88989258 C132.5625 323.125 132.5625 323.125 132.5625 321.125 C131.9025 321.125 131.2425 321.125 130.5625 321.125 C122.65048883 306.37639665 122.65048883 306.37639665 120.3125 301.625 C118.89341844 298.78683687 117.36885708 296.06622365 115.77734375 293.32421875 C114.04704099 290.19187002 112.42553694 287.00622418 110.8125 283.8125 C110.49434326 283.18907715 110.17618652 282.5656543 109.84838867 281.92333984 C107.5625 277.36153638 107.5625 277.36153638 107.5625 275.125 C106.9025 275.125 106.2425 275.125 105.5625 275.125 C105.27528076 274.57561768 104.98806152 274.02623535 104.69213867 273.46020508 C103.37963603 270.95182556 102.06483934 268.4446554 100.75 265.9375 C100.29818359 265.07318359 99.84636719 264.20886719 99.38085938 263.31835938 C97.20889623 259.18053179 94.96886377 255.13133968 92.5625 251.125 C90.97143255 248.16073221 89.42594026 245.17291145 87.875 242.1875 C84.18055408 235.11798151 80.35434133 228.15330181 76.359375 221.25 C74.21852613 217.52678457 72.17243497 213.75797509 70.13671875 209.9765625 C68.95985625 207.84477683 67.75828708 205.74373721 66.51953125 203.6484375 C62.77927589 197.3005633 59.53636728 191.28026889 57.5625 184.125 C56.9025 184.125 56.2425 184.125 55.5625 184.125 C54.07261757 181.40155418 52.59756263 178.67034386 51.125 175.9375 C50.70412109 175.16857422 50.28324219 174.39964844 49.84960938 173.60742188 C47.81237575 169.81001839 46.04240505 166.47904764 45.5625 162.125 C44.9025 162.125 44.2425 162.125 43.5625 162.125 C41.90607236 159.06811771 40.26428208 156.00360605 38.625 152.9375 C38.15642578 152.07318359 37.68785156 151.20886719 37.20507812 150.31835938 C36.75712891 149.47724609 36.30917969 148.63613281 35.84765625 147.76953125 C35.22709351 146.61481323 35.22709351 146.61481323 34.59399414 145.43676758 C33.50815167 143.00319542 32.9865867 140.74865602 32.5625 138.125 C31.9025 138.125 31.2425 138.125 30.5625 138.125 C28.2525 133.835 25.9425 129.545 23.5625 125.125 C23.56418123 127.45663621 23.56586247 129.78827242 23.56759465 132.19056427 C23.68745539 299.47651596 23.68745539 299.47651596 23.69992065 440.34078979 C23.69989118 441.91060006 23.69986172 443.48041033 23.69983227 445.0502206 C23.69916954 477.99961643 23.69644952 510.94901182 23.69135237 543.89840725 C23.68879417 560.44952641 23.68663137 577.0006456 23.6848424 593.55176486 C23.68457025 596.04846744 23.6842868 598.54517001 23.68400288 601.04187258 C23.67972953 639.49596401 23.68394571 677.95003154 23.71270752 716.40411377 C23.71363516 717.64468323 23.71363516 717.64468323 23.71458154 718.91031471 C23.72460418 732.24508682 23.73533811 745.57985837 23.74616642 758.91462985 C23.77733746 797.31428619 23.80326491 835.71391351 23.79435539 874.11358452 C23.79408452 875.29761493 23.79408452 875.29761493 23.79380817 876.50556515 C23.7897498 893.83215273 23.78298537 911.15873815 23.77365731 928.48532366 C23.76995194 935.4565433 23.76663626 942.42776311 23.76345444 949.398983 C23.76291798 950.54345044 23.76291798 950.54345044 23.76237068 951.71103843 C23.75103391 976.31034809 23.77144265 1000.90950622 23.80843951 1025.5087869 C23.84555106 1050.28068358 23.85165728 1075.05237707 23.81444158 1099.82427984 C23.80931076 1103.24470674 23.80453686 1106.66513405 23.79997826 1110.08556175 C23.79861843 1111.09134516 23.79861843 1111.09134516 23.79723113 1112.11744742 C23.78296286 1123.39738896 23.8084249 1134.6769096 23.84431351 1145.95681322 C23.8727683 1155.75603099 23.86528537 1165.55478593 23.82799859 1175.35397322 C23.80776557 1180.94625886 23.8037093 1186.53731952 23.84328665 1192.12952901 C23.87894513 1197.21127559 23.86910752 1202.29076727 23.82203916 1207.3724024 C23.81320381 1209.20496442 23.8213469 1211.03770148 23.84799071 1212.8700911 C24.03324196 1226.52322997 24.03324196 1226.52322997 20.36893557 1230.5139886 C17.78960357 1232.10880868 15.43948838 1233.18876652 12.5625 1234.125 C10.93248047 1234.73988281 10.93248047 1234.73988281 9.26953125 1235.3671875 C-1.15270358 1237.64573277 -14.28134087 1239.47763963 -24.4375 1235.125 C-27.4375 1232.5625 -27.4375 1232.5625 -29.4375 1230.125 C-29.7675 1229.795 -30.0975 1229.465 -30.4375 1229.125 C-30.53761693 1226.47550237 -30.57153429 1223.85201256 -30.56399983 1221.20196456 C-30.56552638 1220.35606534 -30.56705293 1219.51016613 -30.56862573 1218.6386336 C-30.57256917 1215.76133392 -30.56929236 1212.88408546 -30.56613445 1210.00678539 C-30.56747916 1207.93132423 -30.56926194 1205.85586332 -30.57144669 1203.78040287 C-30.576211 1198.02243835 -30.57466404 1192.2644895 -30.57216892 1186.50652417 C-30.57054533 1180.2629988 -30.5746687 1174.01947692 -30.57807809 1167.77595264 C-30.58324894 1156.81521737 -30.58468103 1145.85448739 -30.58362198 1134.89375114 C-30.58249938 1123.12733592 -30.58352514 1111.36092386 -30.58719444 1099.59450912 C-30.5874241 1098.85258435 -30.58765375 1098.11065958 -30.58789036 1097.34625224 C-30.58883195 1094.32472848 -30.58978763 1091.30320473 -30.59076155 1088.28168099 C-30.60091889 1056.72312462 -30.60396801 1025.16457001 -30.60455366 993.60601219 C-30.60461841 990.20655041 -30.60468635 986.80708864 -30.60475707 983.40762687 C-30.60477408 982.56409332 -30.60479108 981.72055978 -30.6048086 980.85146461 C-30.60521665 962.17800131 -30.60740528 943.50453834 -30.60991292 924.83107522 C-30.61094124 917.14754562 -30.61193125 909.46401601 -30.61292917 901.7804864 C-30.61303975 900.9315799 -30.61315034 900.0826734 -30.61326428 899.20804246 C-30.61959059 850.54497143 -30.62371316 801.88190062 -30.62325573 753.21882915 C-30.62323995 751.39673416 -30.62322422 749.57463916 -30.62320852 747.75254417 C-30.62313513 739.52550339 -30.62304696 731.29846261 -30.62295464 723.07142184 C-30.62291351 719.4025987 -30.62287337 715.73377556 -30.62283332 712.06495242 C-30.62281293 710.22863775 -30.62279191 708.39232308 -30.62277026 706.55600841 C-30.62208991 648.48077709 -30.62940825 590.40555187 -30.64331055 532.33032227 C-30.6468114 517.69788203 -30.65028078 503.0654418 -30.65357494 488.43300152 C-30.65377782 487.53209653 -30.65398069 486.63119154 -30.65418971 485.7029864 C-30.66040194 457.94886859 -30.66416974 430.19475129 -30.66543293 402.44063282 C-30.66547288 401.56962283 -30.66551283 400.69861283 -30.66555399 399.80120859 C-30.66640716 380.68300754 -30.6666685 361.56480651 -30.66638362 342.44660544 C-30.66628713 335.60621131 -30.66623509 328.76581719 -30.66620489 321.92542306 C-30.66619697 320.22361936 -30.66618677 318.52181566 -30.66617426 316.82001196 C-30.66599773 289.6712629 -30.67170432 262.52251905 -30.68032808 235.37377148 C-30.68896688 208.03872795 -30.69117886 180.70369164 -30.68456676 153.36864732 C-30.68365439 149.59566291 -30.68281113 145.82267849 -30.68200874 142.04969406 C-30.68184866 141.31004892 -30.68168857 140.57040378 -30.68152363 139.80834516 C-30.67916586 128.0722276 -30.68353917 116.33612249 -30.69067993 104.60000727 C-30.69755304 93.07420031 -30.69717885 81.54841795 -30.68948779 70.02261024 C-30.68557656 63.85101631 -30.6849151 57.67946681 -30.69294515 51.50787588 C-30.70017418 45.90321136 -30.69834694 40.29862864 -30.68902128 34.69396788 C-30.68728734 32.66959446 -30.68896884 30.64521479 -30.69432249 28.62084771 C-30.70106952 25.88849127 -30.6956628 23.15642761 -30.68704766 20.42408293 C-30.69194728 19.63192534 -30.6968469 18.83976774 -30.70189499 18.02360536 C-30.65628685 11.14529691 -30.65628685 11.14529691 -28.4375 8.125 C-26.18472521 6.73001253 -24.06517012 5.56492829 -21.6875 4.4375 C-21.0790625 4.13005859 -20.470625 3.82261719 -19.84375 3.50585938 C-13.23545239 0.27937219 -7.18674235 -0.03812595 0 0 Z " fill="#202020" transform="translate(30.4375,10.875)"/>
<path d="M0 0 C4.80343553 3.44627438 6.99517086 5.60657683 8.4609375 11.453125 C8.73724564 15.26265507 8.69974575 19.05965057 8.66716003 22.87752438 C8.66537835 24.0433039 8.66359666 25.20908342 8.66176099 26.4101896 C8.65508499 29.66136968 8.63949396 32.91237457 8.6206567 36.16350237 C8.60260009 39.71684929 8.59703717 43.27021597 8.59042549 46.82359946 C8.57752362 53.09853103 8.5586615 59.37342025 8.53637123 65.64832509 C8.47788958 82.47702405 8.46445877 99.30581599 8.45271496 116.13460259 C8.45135417 118.05588411 8.44989825 119.97716556 8.44834991 121.89844693 C8.40883561 171.17380212 8.68211062 220.44670203 8.98978099 269.72093413 C9.01922795 274.44782561 9.04833218 279.17471918 9.07745226 283.90161269 C9.24541881 311.1474816 9.41972576 338.39330767 9.59712135 365.63911667 C9.7253118 385.33324723 9.85083429 405.02739328 9.97402954 424.72155571 C9.97818638 425.38596902 9.98234322 426.05038232 9.98662603 426.73492937 C10.03312415 434.16774307 10.07955331 441.6005572 10.12595665 449.0333715 C10.21161566 462.75338905 10.2976007 476.47340455 10.38368225 490.19341946 C10.38798098 490.87862975 10.39227971 491.56384004 10.3967087 492.26981428 C10.59914511 524.53477015 10.80466865 556.79970618 11.01082957 589.06463844 C11.02441827 591.19133172 11.03800581 593.318025 11.05159302 595.44471829 C11.12425413 606.81765237 11.19692511 618.1905864 11.26961242 629.56352031 C11.47498716 661.69759941 11.67965596 693.83168298 11.88387341 725.96576946 C11.89745649 728.10305999 11.91104095 730.24035052 11.92462559 732.37764105 C12.13020869 764.72365212 12.33506878 797.06966762 12.53819275 829.41569424 C12.54248835 830.09967847 12.54678395 830.78366271 12.55120972 831.48837374 C12.63713081 845.16973431 12.72297791 858.85109535 12.8086428 872.53245753 C12.85499825 879.93552757 12.90139752 887.33859733 12.94784546 894.74166679 C12.95199693 895.40338571 12.9561484 896.06510462 12.96042568 896.74687563 C13.0961552 918.37670831 13.2346709 940.00652214 13.37468156 961.6363275 C13.51143847 982.76640125 13.64583578 1003.89648894 13.77795625 1025.0265922 C13.84909941 1036.39256487 13.92126695 1047.7585284 13.99668503 1059.12447357 C14.14503411 1081.56183319 14.27706247 1103.99911696 14.37074733 1126.4367776 C14.42394616 1138.90917973 14.50048692 1151.38122959 14.59194809 1163.85340956 C14.66406868 1173.88847578 14.71688859 1183.92354431 14.75687808 1193.95878897 C14.78167009 1200.01299003 14.81507117 1206.06685624 14.86980951 1212.12086672 C14.9204832 1217.75176358 14.94784057 1223.38228516 14.95709561 1229.0133978 C14.96469061 1231.08900085 14.98095703 1233.16459215 15.00633384 1235.24005396 C15.03975222 1238.07882325 15.04242788 1240.91600471 15.03730488 1243.75492758 C15.06297393 1245.0001727 15.06297393 1245.0001727 15.08916156 1246.27057428 C15.04944723 1250.21481444 14.87656981 1252.01923354 12.09801024 1254.91985804 C0.36378546 1261.74246056 -14.76041816 1262.70729655 -27.9140625 1260.4140625 C-35.50069132 1257.63681445 -35.50069132 1257.63681445 -38.5390625 1254.453125 C-39.75582895 1250.34028881 -39.59262887 1246.30393764 -39.51626587 1242.04109383 C-39.5299397 1240.11994938 -39.5299397 1240.11994938 -39.54388976 1238.15999393 C-39.56359351 1235.33597719 -39.5577898 1232.51351799 -39.5328548 1229.6895455 C-39.49207572 1225.04479662 -39.50694761 1220.40111583 -39.52802467 1215.75629342 C-39.55404425 1208.92889767 -39.55476609 1202.10187672 -39.54230499 1195.27445078 C-39.52572895 1184.39269151 -39.60082534 1173.51243845 -39.6930542 1162.63113022 C-39.72450606 1158.83455565 -39.75567621 1155.03797879 -39.78678894 1151.24140143 C-39.79469323 1150.28298536 -39.80259752 1149.32456929 -39.81074134 1148.33711031 C-39.9020753 1137.09540047 -39.96803357 1125.85355108 -40.03314209 1114.61166382 C-40.04570879 1112.45535965 -40.05827648 1110.29905548 -40.07084513 1108.14275132 C-40.09005392 1104.84061793 -40.10922162 1101.53848432 -40.12829736 1098.23635016 C-40.19586311 1086.55382933 -40.26699011 1074.87133068 -40.33816046 1063.18883134 C-40.46944437 1041.6251973 -40.5981615 1020.06154871 -40.72540283 998.49789047 C-40.85140572 977.14810108 -40.97885347 955.79832119 -41.10809326 934.44855118 C-41.11214295 933.77950534 -41.11619263 933.11045951 -41.12036504 932.42113956 C-41.16564652 924.94074334 -41.21097128 917.46034737 -41.25631309 909.97995152 C-41.34011843 896.15357718 -41.42373176 882.32720169 -41.5072937 868.50082588 C-41.51147215 867.80949013 -41.5156506 867.11815438 -41.51995567 866.40586906 C-41.71798451 833.63973769 -41.91423187 800.87359569 -42.11009057 768.10745128 C-42.12305058 765.93932137 -42.13601138 763.77119146 -42.14897236 761.60306155 C-42.2269494 748.5588313 -42.30490793 735.51460094 -42.38284695 722.47037046 C-42.56909528 691.29904333 -42.75549901 660.12771713 -42.94211741 628.95639222 C-42.95507435 626.79213396 -42.96803045 624.62787571 -42.98098645 622.46361745 C-43.17683154 589.74924966 -43.37315962 557.03488484 -43.5708313 524.32052803 C-43.57500625 523.62954022 -43.57918119 522.93855241 -43.58348265 522.22662558 C-43.66698268 508.40697323 -43.75054373 494.58732125 -43.83424058 480.76767009 C-43.87953447 473.28882009 -43.92479908 465.80996991 -43.97003174 458.33111954 C-43.97407674 457.66235036 -43.97812175 456.99358117 -43.98228933 456.30454626 C-44.11516453 434.33285703 -44.24605647 412.36115653 -44.37593573 390.38944936 C-44.50293128 368.90870942 -44.63166254 347.42798045 -44.76209307 325.94726108 C-44.83237244 314.36400134 -44.90189376 302.78073841 -44.96906281 291.19746017 C-45.29572127 234.94631397 -45.79150648 178.70033275 -46.5390625 122.453125 C-47.49694831 124.04444078 -48.45417798 125.63615154 -49.41113281 127.22802734 C-49.94426086 128.11436859 -50.47738892 129.00070984 -51.02667236 129.91390991 C-52.23848316 131.94846977 -53.42615156 133.99030792 -54.5859375 136.0546875 C-55.42898438 137.55128906 -55.42898438 137.55128906 -56.2890625 139.078125 C-56.86140625 140.10164062 -57.43375 141.12515625 -58.0234375 142.1796875 C-58.52359375 142.92992187 -59.02375 143.68015625 -59.5390625 144.453125 C-60.1990625 144.453125 -60.8590625 144.453125 -61.5390625 144.453125 C-61.64476562 145.1646875 -61.75046875 145.87625 -61.859375 146.609375 C-62.6149771 149.77074471 -63.81812548 152.12649028 -65.4140625 154.953125 C-65.92710937 155.8709375 -66.44015625 156.78875 -66.96875 157.734375 C-67.74605469 159.08015625 -67.74605469 159.08015625 -68.5390625 160.453125 C-69.05726563 161.3915625 -69.57546875 162.33 -70.109375 163.296875 C-70.58117188 164.0084375 -71.05296875 164.72 -71.5390625 165.453125 C-72.1990625 165.453125 -72.8590625 165.453125 -73.5390625 165.453125 C-73.97025391 166.55333984 -73.97025391 166.55333984 -74.41015625 167.67578125 C-77.54969767 175.39970495 -81.65686488 182.31508086 -86.22509766 189.25488281 C-89.00586033 193.51661493 -91.40342567 197.85203571 -93.56640625 202.46484375 C-94.5390625 204.453125 -94.5390625 204.453125 -96.5390625 207.453125 C-97.1990625 207.453125 -97.8590625 207.453125 -98.5390625 207.453125 C-98.6009375 208.113125 -98.6628125 208.773125 -98.7265625 209.453125 C-99.66819048 212.92990522 -101.23607066 215.32628426 -103.1953125 218.31640625 C-105.24364182 221.57348805 -106.86893126 224.9891491 -108.5390625 228.453125 C-109.1990625 228.453125 -109.8590625 228.453125 -110.5390625 228.453125 C-110.80847656 229.16597656 -111.07789063 229.87882813 -111.35546875 230.61328125 C-112.55868562 233.50020754 -113.95423413 236.15973059 -115.4765625 238.890625 C-117.58652175 242.70815519 -119.63112368 246.53125075 -121.5390625 250.453125 C-122.1990625 250.453125 -122.8590625 250.453125 -123.5390625 250.453125 C-123.78398438 251.29101562 -124.02890625 252.12890625 -124.28125 252.9921875 C-125.7005235 256.89739347 -127.55764016 260.26283771 -129.6640625 263.828125 C-130.03660156 264.46878906 -130.40914062 265.10945313 -130.79296875 265.76953125 C-131.70340252 267.33360977 -132.62054441 268.89378034 -133.5390625 270.453125 C-134.1990625 270.453125 -134.8590625 270.453125 -135.5390625 270.453125 C-135.6009375 271.113125 -135.6628125 271.773125 -135.7265625 272.453125 C-136.66313964 275.91125598 -138.19387951 278.2931487 -140.140625 281.26953125 C-142.01470682 284.19582102 -143.66633608 287.22701308 -145.328125 290.27734375 C-146.15745186 291.76745685 -147.01452647 293.24236778 -147.89453125 294.703125 C-150.07620668 298.35134234 -152.14882 302.05750082 -154.2265625 305.765625 C-154.64228516 306.50619141 -155.05800781 307.24675781 -155.48632812 308.00976562 C-156.50455789 309.82385314 -157.52189999 311.63843885 -158.5390625 313.453125 C-159.1990625 313.453125 -159.8590625 313.453125 -160.5390625 313.453125 C-160.81363281 314.16210938 -161.08820313 314.87109375 -161.37109375 315.6015625 C-164.68604724 323.69492722 -168.87857663 331.19001124 -173.66015625 338.49609375 C-177.16996549 344.01984758 -180.33324044 349.74925977 -183.5390625 355.453125 C-184.1990625 355.453125 -184.8590625 355.453125 -185.5390625 355.453125 C-185.78398438 356.28070313 -186.02890625 357.10828125 -186.28125 357.9609375 C-187.73099739 361.98601256 -189.6113676 365.58540214 -191.6640625 369.328125 C-192.03660156 370.01648438 -192.40914062 370.70484375 -192.79296875 371.4140625 C-193.70405776 373.09607298 -194.62096565 374.77492936 -195.5390625 376.453125 C-196.1990625 376.453125 -196.8590625 376.453125 -197.5390625 376.453125 C-197.97412109 377.56107422 -197.97412109 377.56107422 -198.41796875 378.69140625 C-201.88203178 387.22482982 -206.58754167 394.97023361 -211.44116211 402.76831055 C-214.63694208 407.91244707 -217.64429122 413.1337473 -220.5390625 418.453125 C-221.1990625 418.453125 -221.8590625 418.453125 -222.5390625 418.453125 C-222.78011719 419.28070313 -223.02117187 420.10828125 -223.26953125 420.9609375 C-224.74833888 425.02879602 -226.69533317 428.58809704 -228.8515625 432.328125 C-229.46040283 433.39800659 -229.46040283 433.39800659 -230.08154297 434.48950195 C-232.38438769 438.51556067 -234.76781811 442.47032232 -237.27734375 446.37109375 C-240.24656447 451.27076758 -242.86105662 456.39038189 -245.5390625 461.453125 C-246.1990625 461.453125 -246.8590625 461.453125 -247.5390625 461.453125 C-247.77367187 462.27039063 -248.00828125 463.08765625 -248.25 463.9296875 C-249.80639907 468.18384495 -251.90076208 471.91685896 -254.1640625 475.828125 C-254.58429688 476.56417969 -255.00453125 477.30023438 -255.4375 478.05859375 C-256.46659014 479.8595015 -257.50217006 481.65669818 -258.5390625 483.453125 C-259.1990625 483.453125 -259.8590625 483.453125 -260.5390625 483.453125 C-260.79042969 484.30132812 -261.04179688 485.14953125 -261.30078125 486.0234375 C-262.63035578 489.70598147 -264.37328355 492.96947977 -266.3515625 496.328125 C-266.71121094 496.94816406 -267.07085938 497.56820313 -267.44140625 498.20703125 C-269.62002535 501.94516547 -271.87421032 505.62544448 -274.19921875 509.2734375 C-276.39952624 512.85294648 -278.4503624 516.51874699 -280.52294922 520.1730957 C-282.52248575 523.69278908 -284.56198341 527.181298 -286.6640625 530.640625 C-289.79869897 535.81621983 -292.68051623 541.12122664 -295.5390625 546.453125 C-296.1990625 546.453125 -296.8590625 546.453125 -297.5390625 546.453125 C-297.77367187 547.27039063 -298.00828125 548.08765625 -298.25 548.9296875 C-299.80639907 553.18384495 -301.90076208 556.91685896 -304.1640625 560.828125 C-304.79441406 561.93220703 -304.79441406 561.93220703 -305.4375 563.05859375 C-306.46659014 564.8595015 -307.50217006 566.65669818 -308.5390625 568.453125 C-309.1990625 568.453125 -309.8590625 568.453125 -310.5390625 568.453125 C-310.7453125 569.236875 -310.9515625 570.020625 -311.1640625 570.828125 C-312.67721216 574.81733775 -314.6616118 578.17921877 -316.90625 581.79296875 C-318.48164364 584.35957896 -319.98075573 586.96225867 -321.46777344 589.58081055 C-322.94912214 592.16979487 -324.47019937 594.73457727 -325.98974609 597.30126953 C-330.95336083 605.68630998 -335.77620644 614.14201135 -340.52636719 622.64941406 C-342.17966296 625.59409805 -343.85952225 628.52334403 -345.5390625 631.453125 C-346.1990625 631.453125 -346.8590625 631.453125 -347.5390625 631.453125 C-347.7453125 632.236875 -347.9515625 633.020625 -348.1640625 633.828125 C-350.03221641 638.75325803 -352.76248939 642.99506486 -355.5390625 647.453125 C-357.78141118 651.10084542 -359.85059022 654.82509871 -361.90161133 658.58203125 C-365.8436431 665.79066642 -369.9484149 672.79847696 -374.47485352 679.65454102 C-377.58075545 684.40081983 -380.17692237 689.30152292 -382.5390625 694.453125 C-383.1990625 694.453125 -383.8590625 694.453125 -384.5390625 694.453125 C-384.7453125 695.21625 -384.9515625 695.979375 -385.1640625 696.765625 C-387.09879509 701.95422603 -389.79360542 706.65381453 -392.5390625 711.453125 C-393.05597656 712.39027344 -393.57289063 713.32742188 -394.10546875 714.29296875 C-394.57855469 715.00582031 -395.05164063 715.71867188 -395.5390625 716.453125 C-396.1990625 716.453125 -396.8590625 716.453125 -397.5390625 716.453125 C-397.95091797 717.51660156 -397.95091797 717.51660156 -398.37109375 718.6015625 C-401.69410473 726.71459935 -405.90221649 734.22099353 -410.69140625 741.546875 C-412.72736906 744.74931968 -414.61452456 748.02307568 -416.4765625 751.328125 C-419.14531727 756.06506722 -421.91107513 760.71480201 -424.7890625 765.328125 C-427.65490767 769.93717127 -430.22883808 774.54389811 -432.5390625 779.453125 C-433.1990625 779.453125 -433.8590625 779.453125 -434.5390625 779.453125 C-434.9721875 780.55720703 -434.9721875 780.55720703 -435.4140625 781.68359375 C-438.70803922 789.79272395 -443.11404995 797.09731906 -447.79248047 804.4621582 C-451.29503066 809.99544929 -454.51169426 815.64451602 -457.5390625 821.453125 C-458.1990625 821.453125 -458.8590625 821.453125 -459.5390625 821.453125 C-459.64541016 822.43345703 -459.64541016 822.43345703 -459.75390625 823.43359375 C-460.84512435 827.63016885 -462.92672764 831.03876403 -465.1015625 834.765625 C-465.52630859 835.50619141 -465.95105469 836.24675781 -466.38867188 837.00976562 C-467.43257903 838.82780618 -468.48498442 840.64096248 -469.5390625 842.453125 C-470.1990625 842.453125 -470.8590625 842.453125 -471.5390625 842.453125 C-471.82007813 843.17757812 -472.10109375 843.90203125 -472.390625 844.6484375 C-475.20634406 851.52492147 -478.7817428 858.05176551 -482.5390625 864.453125 C-483.1990625 864.453125 -483.8590625 864.453125 -484.5390625 864.453125 C-484.90644531 865.70996094 -484.90644531 865.70996094 -485.28125 866.9921875 C-486.7005235 870.89739347 -488.55764016 874.26283771 -490.6640625 877.828125 C-491.03660156 878.46878906 -491.40914062 879.10945312 -491.79296875 879.76953125 C-492.70340252 881.33360977 -493.62054441 882.89378034 -494.5390625 884.453125 C-495.1990625 884.453125 -495.8590625 884.453125 -496.5390625 884.453125 C-496.6009375 885.113125 -496.6628125 885.773125 -496.7265625 886.453125 C-497.66295497 889.91057412 -499.19164512 892.29145918 -501.140625 895.265625 C-503.02860019 898.21888228 -504.67297694 901.2868714 -506.328125 904.375 C-507.5390625 906.453125 -507.5390625 906.453125 -509 908.3828125 C-510.76696494 910.75969427 -512.13650734 913.22024901 -513.5390625 915.828125 C-514.05726563 916.79105469 -514.57546875 917.75398437 -515.109375 918.74609375 C-516.6317062 921.62854054 -518.11310919 924.52199875 -519.5390625 927.453125 C-520.1990625 927.453125 -520.8590625 927.453125 -521.5390625 927.453125 C-521.95091797 928.51660156 -521.95091797 928.51660156 -522.37109375 929.6015625 C-525.6910046 937.70703046 -529.89285164 945.20941547 -534.6796875 952.52734375 C-537.16039723 956.43081348 -539.42383318 960.44316974 -541.6965332 964.4699707 C-543.42993415 967.53370517 -545.19680117 970.55543855 -547.1015625 973.515625 C-550.58278027 978.96396924 -553.51797969 984.74179842 -556.5390625 990.453125 C-557.1990625 990.453125 -557.8590625 990.453125 -558.5390625 990.453125 C-558.80460938 991.15824219 -559.07015625 991.86335937 -559.34375 992.58984375 C-560.60405217 995.60880286 -562.07864244 998.40497576 -563.6640625 1001.265625 C-564.20289063 1002.24144531 -564.74171875 1003.21726562 -565.296875 1004.22265625 C-565.70679688 1004.95871094 -566.11671875 1005.69476562 -566.5390625 1006.453125 C-583.68395053 1007.46329844 -596.27390638 1001.87613031 -609.19921875 990.91015625 C-612.64789717 987.15984415 -612.89762557 983.61159403 -612.80859375 978.71484375 C-612.4306656 975.54353362 -611.19832303 973.14942336 -609.5390625 970.453125 C-608.8790625 970.453125 -608.2190625 970.453125 -607.5390625 970.453125 C-607.28640625 969.77765625 -607.03375 969.1021875 -606.7734375 968.40625 C-605.3062669 964.89618364 -603.58139673 961.55439679 -601.7890625 958.203125 C-601.43271729 957.53490723 -601.07637207 956.86668945 -600.70922852 956.17822266 C-598.38271906 951.87180511 -595.85771568 947.81044127 -593.05859375 943.79296875 C-589.87343731 938.88831912 -587.24497381 933.63278363 -584.5390625 928.453125 C-583.8790625 928.453125 -583.2190625 928.453125 -582.5390625 928.453125 C-582.29671875 927.62296875 -582.054375 926.7928125 -581.8046875 925.9375 C-580.34291811 921.91312255 -578.42449488 918.40088552 -576.2890625 914.703125 C-575.88647217 913.99720215 -575.48388184 913.2912793 -575.0690918 912.56396484 C-571.52924226 906.37860314 -567.86889374 900.27036262 -564.15625 894.1875 C-560.18553016 887.63472736 -556.42640296 880.97180066 -552.6875 874.28515625 C-550.66078393 870.66126968 -548.60411764 867.05529132 -546.5390625 863.453125 C-545.8790625 863.453125 -545.2190625 863.453125 -544.5390625 863.453125 C-544.28769531 862.60621094 -544.03632812 861.75929688 -543.77734375 860.88671875 C-542.44361462 857.18846037 -540.70354892 853.8948603 -538.7265625 850.515625 C-538.36836426 849.89445801 -538.01016602 849.27329102 -537.64111328 848.63330078 C-535.86449032 845.58731798 -534.04433588 842.6384205 -531.9140625 839.828125 C-529.09638319 836.08370066 -527.24763245 831.90107367 -525.20703125 827.69921875 C-522.88989653 823.18975985 -520.2026443 818.9472514 -517.5078125 814.65625 C-514.66044715 810.02363177 -512.08129655 805.25833255 -509.5390625 800.453125 C-508.8790625 800.453125 -508.2190625 800.453125 -507.5390625 800.453125 C-507.3328125 799.69 -507.1265625 798.926875 -506.9140625 798.140625 C-504.97932991 792.95202397 -502.28451958 788.25243547 -499.5390625 783.453125 C-498.76369141 782.04740234 -498.76369141 782.04740234 -497.97265625 780.61328125 C-497.49957031 779.90042969 -497.02648437 779.18757812 -496.5390625 778.453125 C-495.8790625 778.453125 -495.2190625 778.453125 -494.5390625 778.453125 C-494.30832031 777.63457031 -494.07757812 776.81601562 -493.83984375 775.97265625 C-492.25781292 771.6921464 -490.08925865 768.02948113 -487.7265625 764.140625 C-486.81814248 762.62421753 -485.9105805 761.10729568 -485.00390625 759.58984375 C-484.57319824 758.87103027 -484.14249023 758.1522168 -483.69873047 757.41162109 C-482.34186665 755.12009234 -481.05406025 752.7964815 -479.7890625 750.453125 C-478.23646518 747.61300795 -476.55222134 744.93838955 -474.7265625 742.265625 C-468.96474965 733.77923399 -463.97530226 724.69529117 -459.5390625 715.453125 C-458.8790625 715.453125 -458.2190625 715.453125 -457.5390625 715.453125 C-457.29671875 714.61136719 -457.054375 713.76960937 -456.8046875 712.90234375 C-455.39025637 709.04758237 -453.45394629 705.72791482 -451.2890625 702.265625 C-448.53510642 697.77563497 -445.84472537 693.28306621 -443.3515625 688.640625 C-441.38098837 684.9849081 -439.37613439 681.35639447 -437.2890625 677.765625 C-436.80953125 676.93675781 -436.33 676.10789062 -435.8359375 675.25390625 C-435.40796875 674.65964844 -434.98 674.06539062 -434.5390625 673.453125 C-433.8790625 673.453125 -433.2190625 673.453125 -432.5390625 673.453125 C-432.4771875 672.793125 -432.4153125 672.133125 -432.3515625 671.453125 C-431.40993452 667.97634478 -429.84205434 665.57996574 -427.8828125 662.58984375 C-425.83448318 659.33276195 -424.20919374 655.9171009 -422.5390625 652.453125 C-421.8790625 652.453125 -421.2190625 652.453125 -420.5390625 652.453125 C-420.3328125 651.669375 -420.1265625 650.885625 -419.9140625 650.078125 C-418.36615846 645.99728708 -416.29127384 642.5694793 -414.00390625 638.8671875 C-412.3398924 636.12489267 -410.91114716 633.34974817 -409.5390625 630.453125 C-408.8790625 630.453125 -408.2190625 630.453125 -407.5390625 630.453125 C-407.28511719 629.60105469 -407.03117188 628.74898437 -406.76953125 627.87109375 C-405.45664542 624.22418868 -403.7964438 621.11662873 -401.8515625 617.765625 C-401.49924561 617.1562207 -401.14692871 616.54681641 -400.78393555 615.91894531 C-398.03926042 611.20886366 -395.10559493 606.63416355 -392.13671875 602.0625 C-390.05996105 598.67063167 -388.34371113 595.1561657 -386.6796875 591.546875 C-385.51661381 589.41191782 -384.24472717 588.15878967 -382.5390625 586.453125 C-381.69278585 584.94074672 -380.90510349 583.39475529 -380.1640625 581.828125 C-377.79495586 576.93149122 -375.2237845 572.18280546 -372.5390625 567.453125 C-371.8790625 567.453125 -371.2190625 567.453125 -370.5390625 567.453125 C-370.25289062 566.7209375 -369.96671875 565.98875 -369.671875 565.234375 C-366.45334932 557.33233954 -362.1935344 550.14558105 -357.67578125 542.92578125 C-354.1210157 537.20552571 -350.84572982 531.31894176 -347.5390625 525.453125 C-346.8790625 525.453125 -346.2190625 525.453125 -345.5390625 525.453125 C-345.29414062 524.62554688 -345.04921875 523.79796875 -344.796875 522.9453125 C-343.34712761 518.92023744 -341.4667574 515.32084786 -339.4140625 511.578125 C-339.04152344 510.88976562 -338.66898438 510.20140625 -338.28515625 509.4921875 C-337.37406724 507.81017702 -336.45715935 506.13132064 -335.5390625 504.453125 C-334.8790625 504.453125 -334.2190625 504.453125 -333.5390625 504.453125 C-333.28640625 503.77765625 -333.03375 503.1021875 -332.7734375 502.40625 C-331.3062669 498.89618364 -329.58139673 495.55439679 -327.7890625 492.203125 C-327.43271729 491.53490723 -327.07637207 490.86668945 -326.70922852 490.17822266 C-324.38271906 485.87180511 -321.85771568 481.81044127 -319.05859375 477.79296875 C-315.87343731 472.88831912 -313.24497381 467.63278363 -310.5390625 462.453125 C-309.8790625 462.453125 -309.2190625 462.453125 -308.5390625 462.453125 C-308.29800781 461.62554687 -308.05695313 460.79796875 -307.80859375 459.9453125 C-306.32978612 455.87745398 -304.38279183 452.31815296 -302.2265625 448.578125 C-301.61772217 447.50824341 -301.61772217 447.50824341 -300.99658203 446.41674805 C-298.69373731 442.39068933 -296.31030689 438.43592768 -293.80078125 434.53515625 C-290.83156053 429.63548242 -288.21706838 424.51586811 -285.5390625 419.453125 C-284.8790625 419.453125 -284.2190625 419.453125 -283.5390625 419.453125 C-283.28769531 418.60492188 -283.03632812 417.75671875 -282.77734375 416.8828125 C-281.44776922 413.20026853 -279.70484145 409.93677023 -277.7265625 406.578125 C-277.36691406 405.95808594 -277.00726562 405.33804687 -276.63671875 404.69921875 C-274.4595607 400.96359145 -272.20780685 397.28521074 -269.8828125 393.640625 C-268.02749919 390.62034752 -266.28709265 387.53617587 -264.5390625 384.453125 C-262.03621328 380.04096931 -259.48499611 375.67707826 -256.765625 371.39453125 C-255.24762693 368.99184004 -253.76411504 366.5699177 -252.2890625 364.140625 C-251.78890625 363.31949219 -251.28875 362.49835938 -250.7734375 361.65234375 C-249.41401716 359.39228045 -249.41401716 359.39228045 -248.5390625 356.453125 C-247.8790625 356.453125 -247.2190625 356.453125 -246.5390625 356.453125 C-246.28769531 355.77894531 -246.03632812 355.10476563 -245.77734375 354.41015625 C-244.29616462 350.87308179 -242.54056057 347.51437374 -240.7265625 344.140625 C-240.36691406 343.469104 -240.00726562 342.79758301 -239.63671875 342.10571289 C-237.52293848 338.18942171 -235.32343074 334.37234782 -232.90234375 330.63671875 C-229.60272062 325.35164904 -226.60763596 319.87452525 -223.5390625 314.453125 C-222.8790625 314.453125 -222.2190625 314.453125 -221.5390625 314.453125 C-221.29671875 313.62296875 -221.054375 312.7928125 -220.8046875 311.9375 C-219.34291811 307.91312255 -217.42449488 304.40088552 -215.2890625 300.703125 C-214.685177 299.64424072 -214.685177 299.64424072 -214.0690918 298.56396484 C-210.96900291 293.1470196 -207.78503823 287.78384007 -204.5390625 282.453125 C-203.57999593 280.8493966 -202.62168314 279.24521722 -201.6640625 277.640625 C-199.98785467 274.8381463 -198.28968308 272.05421631 -196.55859375 269.28515625 C-192.52004197 262.82195801 -188.77926738 256.35413828 -185.5390625 249.453125 C-184.8790625 249.453125 -184.2190625 249.453125 -183.5390625 249.453125 C-183.28769531 248.60492188 -183.03632812 247.75671875 -182.77734375 246.8828125 C-181.44776922 243.20026853 -179.70484145 239.93677023 -177.7265625 236.578125 C-177.36691406 235.95808594 -177.00726562 235.33804688 -176.63671875 234.69921875 C-174.45809965 230.96108453 -172.20391468 227.28080552 -169.87890625 223.6328125 C-167.67859876 220.05330352 -165.6277626 216.38750301 -163.55517578 212.7331543 C-161.55563925 209.21346092 -159.51614159 205.724952 -157.4140625 202.265625 C-154.27942603 197.09003017 -151.39760877 191.78502336 -148.5390625 186.453125 C-147.8790625 186.453125 -147.2190625 186.453125 -146.5390625 186.453125 C-146.2296875 185.3084375 -146.2296875 185.3084375 -145.9140625 184.140625 C-143.2679101 177.04412539 -139.48176236 170.63295673 -135.0390625 164.515625 C-131.81554953 160.04794913 -129.4494742 155.40889496 -127.06640625 150.453125 C-125.08592966 146.56308402 -122.73813099 142.9846237 -120.34375 139.33984375 C-117.64730185 135.026694 -115.34432876 130.52972985 -113.01953125 126.0078125 C-111.5390625 123.453125 -111.5390625 123.453125 -109.5390625 122.453125 C-108.54179302 120.65160594 -107.61540046 118.81053837 -106.7265625 116.953125 C-104.16099687 111.68331452 -101.44373439 106.54272707 -98.5390625 101.453125 C-97.8790625 101.453125 -97.2190625 101.453125 -96.5390625 101.453125 C-96.25160156 100.71964844 -95.96414063 99.98617187 -95.66796875 99.23046875 C-92.52842733 91.50654505 -88.42126012 84.59116914 -83.85302734 77.65136719 C-81.07226467 73.38963507 -78.67469933 69.05421429 -76.51171875 64.44140625 C-75.5390625 62.453125 -75.5390625 62.453125 -73.5390625 59.453125 C-72.8790625 59.453125 -72.2190625 59.453125 -71.5390625 59.453125 C-71.44625 58.463125 -71.44625 58.463125 -71.3515625 57.453125 C-70.40993452 53.97634478 -68.84205434 51.57996574 -66.8828125 48.58984375 C-64.83448318 45.33276195 -63.20919374 41.9171009 -61.5390625 38.453125 C-60.8790625 38.453125 -60.2190625 38.453125 -59.5390625 38.453125 C-59.13494141 37.38384766 -59.13494141 37.38384766 -58.72265625 36.29296875 C-57.51943938 33.40604246 -56.12389087 30.74651941 -54.6015625 28.015625 C-52.49160325 24.19809481 -50.44700132 20.37499925 -48.5390625 16.453125 C-47.8790625 16.453125 -47.2190625 16.453125 -46.5390625 16.453125 C-46.2709375 15.56625 -46.0028125 14.679375 -45.7265625 13.765625 C-44.61413581 10.66254003 -43.22565008 8.26410429 -41.5390625 5.453125 C-41.28511719 4.46054688 -41.03117187 3.46796875 -40.76953125 2.4453125 C-39.5390625 -0.546875 -39.5390625 -0.546875 -37.24609375 -2.0078125 C-25.04272412 -5.86150817 -11.29573247 -6.88170778 0 0 Z " fill="#232323" transform="translate(1180.5390625,5.546875)"/>
<path d="M0 0 C2 2 2 2 2.24934233 4.31705744 C2.24903037 5.29755164 2.24871841 6.27804585 2.24839699 7.288252 C2.25513887 8.98499276 2.25513887 8.98499276 2.26201695 10.71601111 C2.25676292 11.9717726 2.2515089 13.22753409 2.24609566 14.52134895 C2.24757365 15.86414754 2.24992944 17.2069454 2.25308865 18.54974109 C2.25925992 22.26878258 2.25284917 25.98771573 2.24453239 29.7067492 C2.23769229 33.74169133 2.24240015 37.77662194 2.24568737 41.81156623 C2.24984504 48.89288488 2.24652999 55.97417001 2.23841095 63.05548477 C2.22637154 73.58523775 2.22573648 84.11496946 2.22749493 94.64472807 C2.23012667 112.35497694 2.22342499 130.06521093 2.21146011 147.77545547 C2.19963844 165.31857502 2.19193073 182.86168836 2.18975449 200.40481186 C2.18961701 201.49434295 2.18947953 202.58387404 2.18933788 203.70642122 C2.18866124 209.2392786 2.18805847 214.77213599 2.18748413 220.30499338 C2.18327989 259.52543601 2.16979564 298.74587053 2.15087891 337.96630859 C2.13251924 376.07568315 2.11834751 414.1850555 2.10986328 452.29443359 C2.10960023 453.46849849 2.10933718 454.64256338 2.10906615 455.852206 C2.10642918 467.64231908 2.10387754 479.43243219 2.10138843 491.2225453 C2.09631559 515.24177796 2.09067309 539.26101047 2.08468628 563.28024292 C2.0844117 564.38468263 2.08413712 565.48912235 2.08385422 566.62702993 C2.06544338 640.41802333 2.03375188 714.20901222 2 788 C0.09876535 788.97606514 -1.80546771 789.94629121 -3.7109375 790.9140625 C-5.30107666 791.72544678 -5.30107666 791.72544678 -6.92333984 792.55322266 C-17.72898712 797.63450069 -33.90602894 798.18463113 -45.17578125 794.14453125 C-48.03963211 792.34772546 -50.27863684 790.93677983 -52 788 C-52.77044378 783.71291015 -52.66636653 779.45329244 -52.62361908 775.10785675 C-52.6282279 773.7613616 -52.63502898 772.41487248 -52.64382517 771.06839818 C-52.66169559 767.3528764 -52.64827706 763.63801526 -52.62993505 759.92251983 C-52.61548756 755.88628264 -52.6299675 751.85013453 -52.64082003 747.81390047 C-52.65582666 740.7348043 -52.6521669 733.65590638 -52.63640213 726.57681465 C-52.61302416 716.05018863 -52.61817048 705.52371257 -52.62911103 694.99707322 C-52.64772134 676.19912932 -52.6379654 657.40128002 -52.61663339 638.60334383 C-52.59809699 622.15324444 -52.58965299 605.70317686 -52.59120178 589.25306702 C-52.59129346 588.16308142 -52.59138513 587.07309583 -52.59147959 585.95008037 C-52.59187273 581.5257856 -52.59232234 577.10149085 -52.59285098 572.6771961 C-52.59772518 531.15013246 -52.57503919 489.62312527 -52.53889475 448.09607918 C-52.50690003 411.17911271 -52.49485093 374.26219448 -52.50097656 337.34521484 C-52.50136341 334.97488668 -52.50174986 332.60455851 -52.50213593 330.23423034 C-52.50232728 329.06240094 -52.50251862 327.89057154 -52.50271577 326.68323216 C-52.50367007 320.7847448 -52.50458444 314.88625745 -52.50545502 308.98777008 C-52.50562881 307.82416028 -52.5058026 306.66055048 -52.50598167 305.46167978 C-52.51033415 274.63979238 -52.5003283 243.81791021 -52.48561716 212.99602652 C-52.48509702 211.89998526 -52.48457688 210.80394401 -52.48404097 209.67468938 C-52.48352163 208.580618 -52.48300229 207.48654662 -52.4824672 206.35932156 C-52.48194946 205.26721893 -52.48143172 204.17511629 -52.48089829 203.04991963 C-52.4798502 200.85046972 -52.47878999 198.65101982 -52.47771757 196.45156992 C-52.47032857 181.09993006 -52.4682503 165.74829758 -52.46971158 150.39665617 C-52.47155505 130.61585572 -52.46352974 110.83510076 -52.43807012 91.05431521 C-52.42487817 80.58626815 -52.41990986 70.11829374 -52.42670866 59.65024013 C-52.43040814 52.666316 -52.4232619 45.68245841 -52.40711627 38.69855206 C-52.39820422 34.71380892 -52.39409692 30.72921572 -52.40304345 26.74446923 C-52.41107081 23.12293734 -52.40541941 19.50170021 -52.38862656 15.88020072 C-52.38328961 13.95685443 -52.39271835 12.03348471 -52.40266097 10.11015671 C-52.39463796 8.97210204 -52.38661495 7.83404736 -52.37834883 6.66150618 C-52.37737269 5.19127306 -52.37737269 5.19127306 -52.37637684 3.69133827 C-51.92907926 0.49287077 -50.87274716 -1.39105357 -49 -4 C-34.08394459 -14.0028774 -14.25390915 -8.16433738 0 0 Z " fill="#1C1C1C" transform="translate(1087,472)"/>
<path d="M0 0 C1.25529688 2.51059376 1.12846227 4.21501831 1.13340384 7.02601749 C1.13770093 8.09856018 1.14199803 9.17110287 1.14642534 10.27614686 C1.1460851 11.46630529 1.14574487 12.65646373 1.14539433 13.88268757 C1.14894494 15.14302404 1.15249556 16.40336052 1.15615377 17.70188901 C1.16592162 21.2273191 1.16939226 24.75273237 1.17187708 28.2781741 C1.17563546 32.10335658 1.18508156 35.92852564 1.19378132 39.75369948 C1.21011886 47.35260548 1.22094199 54.95151052 1.23005992 62.55042823 C1.23779751 68.87036498 1.2478688 75.19029446 1.25945473 81.5102253 C1.26195684 82.87617793 1.26195684 82.87617793 1.2645095 84.26972556 C1.26791828 86.12679642 1.2713298 87.98386728 1.27474403 89.84093813 C1.32044996 114.96295569 1.3508969 140.08498868 1.37890625 165.20703125 C1.38006124 166.2351871 1.38121623 167.26334296 1.38240622 168.32265505 C1.42809174 209.00165556 1.46774159 249.68066242 1.49443116 290.35968009 C1.50105501 300.44038907 1.50792838 310.52109789 1.51489258 320.60180664 C1.51565576 321.71573972 1.51641895 322.8296728 1.51720526 323.97736143 C1.54216067 360.11145452 1.59565569 396.24543268 1.66491084 432.37946596 C1.73593815 469.505555 1.78107991 506.63158219 1.79241193 543.75773996 C1.79401693 548.99706465 1.79590453 554.2363892 1.79795647 559.47571373 C1.79834935 560.50691387 1.79874223 561.53811402 1.79914702 562.60056265 C1.80621603 579.22309628 1.84046593 595.8454688 1.88461748 612.46794064 C1.92834411 629.16339648 1.94292625 645.85867593 1.92752422 662.55418376 C1.91924232 672.48253733 1.93340413 682.41027716 1.97924355 692.3385315 C2.00764275 698.96277857 2.0072276 705.58661115 1.98297868 712.21087387 C1.96997644 715.9905579 1.9698681 719.76907089 2.00474424 723.54864226 C2.04195721 727.6132496 2.01780592 731.6751284 1.98717594 735.73978901 C2.0079062 736.92292394 2.02863646 738.10605888 2.04999492 739.32504639 C1.92014971 747.01591762 1.92014971 747.01591762 -0.74140782 749.8624021 C-3.95887202 751.98022493 -6.11519322 753 -10 753 C-10 753.66 -10 754.32 -10 755 C-16.46355011 756.9230397 -22.33899773 757.30469968 -29.0625 757.25 C-30.01705078 757.25773437 -30.97160156 757.26546875 -31.95507812 757.2734375 C-37.36269566 757.25850964 -41.88891341 756.7863992 -47 755 C-47 754.34 -47 753.68 -47 753 C-47.61875 752.7525 -48.2375 752.505 -48.875 752.25 C-51.45917915 750.72989462 -51.91587292 749.76459691 -53 747 C-53.25076034 744.54119081 -53.25076034 744.54119081 -53.251849 741.72558552 C-53.25974389 740.1100296 -53.25974389 740.1100296 -53.26779827 738.46183619 C-53.26340179 737.27693178 -53.25900531 736.09202738 -53.25447559 734.87121677 C-53.25768207 733.60857261 -53.26088855 732.34592845 -53.26419219 731.04502234 C-53.27284652 727.52241132 -53.26897161 723.99990628 -53.26313647 720.47729351 C-53.25897983 716.6517252 -53.26636033 712.82617672 -53.27228898 709.00061315 C-53.28107079 702.28987071 -53.28235608 695.57915878 -53.27878571 688.86841202 C-53.27349046 678.88945269 -53.27956209 668.91052304 -53.28786864 658.93156694 C-53.30313285 640.07477406 -53.30481124 621.21799458 -53.30234561 602.36119682 C-53.30051506 587.80326507 -53.30226754 573.24533774 -53.30657005 558.68740654 C-53.30717245 556.59807936 -53.30777364 554.50875218 -53.30837366 552.41942499 C-53.30928088 549.27126032 -53.31018954 546.12309565 -53.31110601 542.97493098 C-53.31953919 513.6938104 -53.32386869 484.41269148 -53.31969929 455.13156986 C-53.31954291 454.02704626 -53.31938654 452.92252267 -53.31922542 451.78452866 C-53.3184196 446.18598601 -53.31757383 440.58744337 -53.31671212 434.98890073 C-53.31654103 433.87695308 -53.31636994 432.76500544 -53.31619367 431.61936241 C-53.31584702 429.37073298 -53.31549849 427.12210355 -53.31514808 424.87347412 C-53.30978963 389.87665833 -53.31772335 354.87986773 -53.33618164 319.88305664 C-53.35688105 280.59081638 -53.36762833 241.29859172 -53.36360615 202.00634569 C-53.36321079 197.8197002 -53.36284925 193.63305472 -53.36250877 189.44640923 C-53.36241804 188.41550208 -53.36232731 187.38459494 -53.36223383 186.32244819 C-53.36106613 170.73580814 -53.36772925 155.14918381 -53.37832069 139.56254768 C-53.39034835 121.84395033 -53.39195981 104.12538769 -53.37953053 86.40678985 C-53.37288143 76.48307744 -53.37457999 66.55944793 -53.38811904 56.63574209 C-53.39632681 50.01463145 -53.39371414 43.39358329 -53.38214377 36.7724778 C-53.37585066 32.99492811 -53.37438016 29.21754086 -53.38600711 25.44000018 C-53.39839492 21.37807652 -53.38777843 17.31654573 -53.37473011 13.25462437 C-53.38203946 12.07206113 -53.3893488 10.88949789 -53.39687964 9.67109939 C-53.38962531 8.5915586 -53.38237098 7.5120178 -53.37489682 6.39976364 C-53.37491729 5.47054614 -53.37493775 4.54132864 -53.37495883 3.58395303 C-52.91708492 0.4286075 -51.87005724 -1.43483931 -50 -4 C-35.67221909 -12.72125794 -13.4612628 -8.55086505 0 0 Z " fill="#1C1C1C" transform="translate(154,489)"/>
<path d="M0 0 C1.60294922 0.01353516 1.60294922 0.01353516 3.23828125 0.02734375 C4.04652344 0.03894531 4.85476562 0.05054687 5.6875 0.0625 C6.37585938 1.45662109 6.37585938 1.45662109 7.078125 2.87890625 C7.69780669 4.12765875 8.31760461 5.37635357 8.9375 6.625 C9.23785156 7.23408203 9.53820312 7.84316406 9.84765625 8.47070312 C11.666546 12.12783252 13.59454188 15.68937576 15.64306641 19.2253418 C18.01404097 23.39588494 20.19485152 27.67232494 22.41992188 31.921875 C23.94679103 34.8247472 25.47024989 37.7021407 27.1640625 40.51171875 C29.44707848 44.33430705 31.44904342 48.29926679 33.5 52.25 C36.57265805 58.13362454 39.7122984 63.914421 43.203125 69.5625 C45.46996687 73.38033894 47.51119487 77.3166097 49.57983398 81.24389648 C51.92283653 85.67502126 54.36363157 90.037344 56.875 94.375 C59.51355112 98.93826703 61.9628619 103.54976233 64.26953125 108.2890625 C66.53521317 112.72056157 69.01142928 117.0329696 71.47827148 121.35498047 C73.13598911 124.26688525 74.7358312 127.16114521 76.2109375 130.171875 C77.64882028 133.12964007 77.64882028 133.12964007 79.62890625 135.9453125 C81.96623635 139.48457135 83.78672351 143.1239774 85.625 146.9375 C88.64629481 153.1443937 88.64629481 153.1443937 92.1875 159.0625 C94.71413938 162.88660284 96.67087408 166.95529902 98.6875 171.0625 C101.03584702 175.84097457 103.42235547 180.44174339 106.3515625 184.89453125 C108.62494306 188.58378918 110.58194653 192.44887092 112.59887695 196.28222656 C114.76154852 200.37456485 117.01558602 204.39124 119.375 208.375 C121.85998182 212.57992429 124.09694443 216.82989256 126.234375 221.21875 C128.51106513 225.67420811 130.99807749 230.00964497 133.47802734 234.35449219 C135.1357962 237.26657464 136.73575214 240.16098385 138.2109375 243.171875 C139.64692431 246.12486315 139.64692431 246.12486315 141.609375 248.921875 C144.03651323 252.58995608 145.99048445 256.37520188 147.9375 260.3125 C148.30101562 261.03179687 148.66453125 261.75109375 149.0390625 262.4921875 C151.6875 267.80897556 151.6875 267.80897556 151.6875 270.0625 C152.3475 270.0625 153.0075 270.0625 153.6875 270.0625 C154.39712891 271.5165625 154.39712891 271.5165625 155.12109375 273 C159.34139359 281.58001547 163.81007127 289.96418551 168.5390625 298.2734375 C172.56256488 305.34386401 176.36926571 312.53089578 180.1328125 319.7421875 C185.8963993 330.78644302 185.8963993 330.78644302 192.1875 341.53515625 C194.5335055 345.48793114 196.65939557 349.55584293 198.79736328 353.62402344 C200.67972406 357.20117879 202.63292653 360.7224264 204.65185547 364.2253418 C206.9874522 368.36852082 209.14422493 372.61144351 211.33203125 376.83398438 C213.01098187 380.03899149 214.70468467 383.08812857 216.72265625 386.09765625 C219.43717999 390.19372687 221.47403298 394.54330408 223.59960938 398.96484375 C225.65879345 403.18068806 227.93778141 407.13479127 230.4621582 411.08837891 C232.41847662 414.24016028 234.10848289 417.51955363 235.8125 420.8125 C242.31947865 433.2364283 249.05147013 445.54056164 256.0625 457.6875 C258.63395798 462.15508357 261.01460351 466.65607103 263.26953125 471.2890625 C265.53521317 475.72056157 268.01142928 480.0329696 270.47827148 484.35498047 C272.13598911 487.26688525 273.7358312 490.16114521 275.2109375 493.171875 C276.64882028 496.12964007 276.64882028 496.12964007 278.62890625 498.9453125 C281.37247967 503.0997178 283.44612706 507.48525529 285.59960938 511.96484375 C287.65781341 516.1786816 289.93482372 520.13210136 292.45776367 524.08398438 C294.43172758 527.25988342 296.14991993 530.5592565 297.875 533.875 C298.25374268 534.5956665 298.63248535 535.31633301 299.02270508 536.05883789 C300.680296 539.21465552 302.32920892 542.37496114 303.9765625 545.53613281 C310.2886498 557.69980374 310.2886498 557.69980374 317.1875 569.53515625 C319.5335055 573.48793114 321.65939557 577.55584293 323.79736328 581.62402344 C324.27278564 582.52749512 324.27278564 582.52749512 324.7578125 583.44921875 C325.06936279 584.04637695 325.38091309 584.64353516 325.7019043 585.25878906 C326.37747587 586.49513357 327.09246299 587.71050947 327.83911133 588.90527344 C329.49814175 591.57209918 330.674821 593.4961713 330.74609375 596.6796875 C330.54113281 597.42476562 330.33617187 598.16984375 330.125 598.9375 C329.93808594 599.69804688 329.75117187 600.45859375 329.55859375 601.2421875 C329.27113281 601.84289062 328.98367188 602.44359375 328.6875 603.0625 C327.6975 603.3925 326.7075 603.7225 325.6875 604.0625 C324.98613013 605.37790964 324.32212089 606.71361952 323.6875 608.0625 C317.36898918 615.09944208 307.1738881 621.10588944 297.6875 622.0625 C293.01521506 622.20423779 288.3599927 622.18062482 283.6875 622.0625 C282.68241199 620.27368264 281.68357264 618.48135304 280.6875 616.6875 C280.130625 615.68976562 279.57375 614.69203125 279 613.6640625 C277.6875 611.0625 277.6875 611.0625 277.6875 609.0625 C277.0275 609.0625 276.3675 609.0625 275.6875 609.0625 C269.73046875 597.1484375 269.73046875 597.1484375 268.68505859 595.04980469 C267.78013065 593.24703586 266.85412702 591.45488471 265.92578125 589.6640625 C264.6875 587.0625 264.6875 587.0625 264.6875 585.0625 C264.0275 585.0625 263.3675 585.0625 262.6875 585.0625 C261.19761757 582.33905418 259.72256263 579.60784386 258.25 576.875 C257.82912109 576.10607422 257.40824219 575.33714844 256.97460938 574.54492188 C254.93737575 570.74751839 253.16740505 567.41654764 252.6875 563.0625 C252.0275 563.0625 251.3675 563.0625 250.6875 563.0625 C250.41075439 562.53406494 250.13400879 562.00562988 249.84887695 561.46118164 C248.56705805 559.0151884 247.28353684 556.57009216 246 554.125 C245.56494141 553.29419922 245.12988281 552.46339844 244.68164062 551.60742188 C242.16993272 546.82587424 239.60635574 542.07970213 236.97143555 537.36499023 C234.59997063 533.11222629 232.27039775 528.83650536 229.9375 524.5625 C229.41599365 523.60778809 228.8944873 522.65307617 228.35717773 521.66943359 C224.74621097 515.04426275 221.18637466 508.39429001 217.71777344 501.69335938 C215.99057813 498.38812793 214.17226557 495.19539177 212.171875 492.046875 C209.83597938 488.36408808 207.80384442 484.59628406 205.875 480.6875 C205.40803711 479.76517578 205.40803711 479.76517578 204.93164062 478.82421875 C202.6875 474.31620879 202.6875 474.31620879 202.6875 472.0625 C202.0275 472.0625 201.3675 472.0625 200.6875 472.0625 C199.38714229 469.71278386 198.09720531 467.35825663 196.8125 465 C196.44769531 464.34322266 196.08289063 463.68644531 195.70703125 463.00976562 C193.40203531 458.7560004 191.8485836 454.76183309 190.6875 450.0625 C190.0275 450.0625 189.3675 450.0625 188.6875 450.0625 C187.03107236 447.00561771 185.38928208 443.94110605 183.75 440.875 C183.28142578 440.01068359 182.81285156 439.14636719 182.33007812 438.25585938 C181.88212891 437.41474609 181.43417969 436.57363281 180.97265625 435.70703125 C180.55894775 434.93721924 180.14523926 434.16740723 179.71899414 433.37426758 C178.63315167 430.94069542 178.1115867 428.68615602 177.6875 426.0625 C177.0275 426.0625 176.3675 426.0625 175.6875 426.0625 C175.24265259 425.20253418 175.24265259 425.20253418 174.78881836 424.32519531 C169.77583909 414.65044609 164.76691764 405.01651588 159.19140625 395.65234375 C152.6875 384.45211039 152.6875 384.45211039 152.6875 381.0625 C152.0275 381.0625 151.3675 381.0625 150.6875 381.0625 C149.39076398 378.52330994 148.10002163 375.98135762 146.8125 373.4375 C146.44769531 372.72464844 146.08289063 372.01179688 145.70703125 371.27734375 C143.68749073 367.27498163 141.9793889 363.37332927 140.6875 359.0625 C140.0275 359.0625 139.3675 359.0625 138.6875 359.0625 C138.38046143 358.43794922 138.07342285 357.81339844 137.75708008 357.16992188 C136.34241192 354.29861044 134.92125657 351.43055562 133.5 348.5625 C133.01724609 347.58023437 132.53449219 346.59796875 132.03710938 345.5859375 C129.52194602 340.52185021 126.89976402 335.65557655 123.8371582 330.90332031 C121.98141344 327.93192181 120.42408625 324.8267079 118.875 321.6875 C118.40803711 320.76517578 118.40803711 320.76517578 117.93164062 319.82421875 C115.6875 315.31620879 115.6875 315.31620879 115.6875 313.0625 C115.0275 313.0625 114.3675 313.0625 113.6875 313.0625 C113.35540527 312.41812988 113.02331055 311.77375977 112.68115234 311.10986328 C111.14498903 308.13397979 109.60377473 305.16073919 108.0625 302.1875 C107.54042969 301.17429687 107.01835937 300.16109375 106.48046875 299.1171875 C103.49202771 293.36167142 100.354943 287.75623281 96.97802734 282.22021484 C95.44003074 279.64874039 94.10072879 277.01698031 92.8125 274.3125 C90.00662539 268.59028327 86.91084983 263.09171045 83.71484375 257.58203125 C79.45738836 250.22834091 75.41484707 242.75813571 71.4375 235.25 C70.99148438 234.41791016 70.54546875 233.58582031 70.0859375 232.72851562 C69.66054688 231.92478516 69.23515625 231.12105469 68.796875 230.29296875 C68.41499023 229.57520264 68.03310547 228.85743652 67.63964844 228.11791992 C66.7083439 226.10749609 66.14622301 224.22500788 65.6875 222.0625 C65.0275 222.0625 64.3675 222.0625 63.6875 222.0625 C62.19761757 219.33905418 60.72256263 216.60784386 59.25 213.875 C58.82912109 213.10607422 58.40824219 212.33714844 57.97460938 211.54492188 C55.93737575 207.74751839 54.16740505 204.41654764 53.6875 200.0625 C53.0275 200.0625 52.3675 200.0625 51.6875 200.0625 C49.84414797 196.63028191 48.01457091 193.19090873 46.1875 189.75 C45.66285156 188.77353516 45.13820313 187.79707031 44.59765625 186.79101562 C44.10136719 185.85322266 43.60507812 184.91542969 43.09375 183.94921875 C42.63291016 183.08514404 42.17207031 182.22106934 41.69726562 181.33081055 C40.6875 179.0625 40.6875 179.0625 40.6875 176.0625 C40.0275 176.0625 39.3675 176.0625 38.6875 176.0625 C38.39093506 175.48918945 38.09437012 174.91587891 37.78881836 174.32519531 C32.77583909 164.65044609 27.76691764 155.01651588 22.19140625 145.65234375 C15.6875 134.45211039 15.6875 134.45211039 15.6875 131.0625 C15.0275 131.0625 14.3675 131.0625 13.6875 131.0625 C12.01436677 127.77408124 10.35010393 124.48125318 8.6875 121.1875 C8.21054688 120.25035156 7.73359375 119.31320313 7.2421875 118.34765625 C6.79101562 117.45175781 6.33984375 116.55585938 5.875 115.6328125 C5.45605469 114.80539551 5.03710938 113.97797852 4.60546875 113.12548828 C3.6875 111.0625 3.6875 111.0625 3.6875 109.0625 C3.0275 109.0625 2.3675 109.0625 1.6875 109.0625 C0.24913015 106.35462552 -1.18822092 103.64621839 -2.625 100.9375 C-3.23118164 99.79667969 -3.23118164 99.79667969 -3.84960938 98.6328125 C-6.05784013 94.46769433 -8.20654049 90.28050561 -10.3125 86.0625 C-11.07268121 84.66083697 -11.8428796 83.26454036 -12.625 81.875 C-13.0478125 81.11574219 -13.470625 80.35648437 -13.90625 79.57421875 C-14.92136546 77.76110975 -15.9430192 75.95165603 -16.96875 74.14453125 C-17.5153125 73.16871094 -18.061875 72.19289063 -18.625 71.1875 C-19.13675781 70.28257812 -19.64851563 69.37765625 -20.17578125 68.4453125 C-21.3125 66.0625 -21.3125 66.0625 -21.3125 63.0625 C-21.9725 63.0625 -22.6325 63.0625 -23.3125 63.0625 C-23.60906494 62.48395264 -23.90562988 61.90540527 -24.21118164 61.30932617 C-25.59368459 58.62004088 -26.98311031 55.93443932 -28.375 53.25 C-28.87362549 52.28690918 -29.37225098 51.32381836 -29.88598633 50.33154297 C-32.53913554 45.26165107 -35.27167967 40.41041307 -38.5 35.6875 C-40.53821252 32.58118573 -41.31425071 31.05295069 -42 27.3125 C-40.23334411 18.96103579 -34.98657934 14.01591826 -28.3125 9.0625 C-25.07242576 7.15105376 -21.75830031 5.56539466 -18.3125 4.0625 C-17.64863281 3.75441406 -16.98476562 3.44632812 -16.30078125 3.12890625 C-10.77433105 0.62342232 -6.03780686 -0.06634953 0 0 Z " fill="#161616" transform="translate(221.3125,123.9375)"/>
</svg>
